<?xml version="1.0" encoding="UTF-8"?>
<svg id="_레이어_2" data-name="레이어 2" xmlns="http://www.w3.org/2000/svg" viewBox="0 0 263.22 424.99">
  <defs>
    <style>
      .cls-1 {
        fill: #f9aa6d;
      }

      .cls-1, .cls-2, .cls-3, .cls-4, .cls-5, .cls-6, .cls-7, .cls-8, .cls-9, .cls-10, .cls-11, .cls-12, .cls-13, .cls-14, .cls-15, .cls-16, .cls-17, .cls-18 {
        stroke-width: 0px;
      }

      .cls-2 {
        fill: #fbbf94;
      }

      .cls-3 {
        fill: #696b43;
      }

      .cls-4 {
        fill: #deddda;
      }

      .cls-5 {
        fill: #4a4c4e;
      }

      .cls-6 {
        fill: #a48d64;
      }

      .cls-7 {
        fill: #c8c97e;
      }

      .cls-8 {
        fill: #f8a86d;
      }

      .cls-9 {
        fill: #dfe1dd;
      }

      .cls-10 {
        fill: #fffdf8;
      }

      .cls-11 {
        fill: #ae9e7b;
      }

      .cls-12 {
        fill: #dfdee0;
      }

      .cls-13 {
        fill: #dfdfdd;
      }

      .cls-14 {
        fill: #eceaeb;
      }

      .cls-15 {
        fill: #454748;
      }

      .cls-16 {
        fill: #fff;
      }

      .cls-19 {
        fill: none;
        stroke: #c2895d;
        stroke-miterlimit: 10;
        stroke-width: 3px;
      }

      .cls-17 {
        fill: #f8a771;
      }

      .cls-18 {
        fill: #bab967;
      }
    </style>
  </defs>
  <g id="Layer_1" data-name="Layer 1">
    <g>
      <polygon class="cls-2" points="225.74 230.82 229.51 252.93 234.9 252.93 236.25 239.83 251.89 254.55 255.94 251.85 240.84 237.29 260.06 249.5 263.22 245.11 244.48 233.78 261.33 239.83 263.22 234.97 246.77 229.3 259.35 231.83 258.81 227.25 240.03 219.49 225.74 230.82"/>
      <path class="cls-18" d="M161.79,107.25s31.99,1.85,82.69,113.49l-18.34,14.8s-42.76-30.26-62.02-66.58l-2.33-61.72Z"/>
      <path class="cls-13" d="M226.14,235.55s-3.29-2.33-8.45-6.47h0l22.88-16.81c1.29,2.76,2.6,5.57,3.92,8.47l-18.34,14.8Z"/>
      <polygon class="cls-2" points="37.48 230.76 33.71 252.87 28.31 252.87 26.97 239.77 11.33 254.49 7.28 251.79 22.38 237.23 3.16 249.44 0 245.05 18.74 233.72 1.89 239.77 0 234.9 16.45 229.24 3.87 231.77 4.4 227.19 23.19 219.43 37.48 230.76"/>
      <g>
        <ellipse class="cls-15" cx="99.82" cy="86.4" rx="6.88" ry="8.29"/>
        <ellipse class="cls-15" cx="94.31" cy="95.27" rx="6.09" ry="5.51" transform="translate(-35.35 129.31) rotate(-60)"/>
        <ellipse class="cls-15" cx="88.68" cy="101.97" rx="5.17" ry="3.98" transform="translate(-43.97 127.78) rotate(-60)"/>
        <ellipse class="cls-15" cx="84.01" cy="107.25" rx="5.17" ry="3.98" transform="translate(-52.2 104.93) rotate(-50.95)"/>
        <ellipse class="cls-15" cx="79.02" cy="111.02" rx="4.37" ry="3.44" transform="translate(-44.92 54.38) rotate(-30)"/>
        <path class="cls-15" d="M74.54,117.46c-2.31.7-5.72.68-6.27-1.13s1.97-4.74,4.28-5.44,4.63.21,5.17,2.02-.88,3.85-3.18,4.55Z"/>
        <path class="cls-15" d="M68.27,116.33s-4.65-2.16-7.21-2.06l1.01,5.97,2.6-.81-1.38,2.83,1.38.81s3.27-3.51,3.61-6.74Z"/>
      </g>
      <polygon class="cls-11" points="176.29 231.58 83.36 231.58 68.9 370.61 78.61 376.55 106.11 376.55 117.1 372.23 129.82 259.51 142.55 372.23 153.54 376.55 181.04 376.55 190.75 370.61 176.29 231.58"/>
      <path class="cls-18" d="M101.43,107.19s-31.99,1.85-82.69,113.49l18.34,14.8s42.76-30.26,62.02-66.58l2.33-61.72Z"/>
      <path class="cls-7" d="M101.43,107.19s-20.13,57.94-22.82,123.74c0,0,62.42,9.25,106.64-1,0,0-6.59-74.98-23.72-122.74h-60.1Z"/>
      <path class="cls-2" d="M88.24,55.1c.05-3.31-3.35-4.03-6.64-3.81s-5.11,2.89-6.12,6.04-1.45,4.64-.1,7.65c3.04,6.8,10.2,11.56,17.65,11.71.08-1.26-4.78-21.6-4.78-21.6Z"/>
      <path class="cls-2" d="M176.03,55.1c-.05-3.31,3.35-4.03,6.64-3.81s5.11,2.89,6.12,6.04,1.45,4.64.1,7.65c-3.04,6.8-10.2,11.56-17.65,11.71-.08-1.26,4.78-21.6,4.78-21.6Z"/>
      <polygon class="cls-2" points="144.55 114.68 131.82 123.68 119.1 114.68 119.1 89.23 144.55 89.23 144.55 114.68"/>
      <polygon class="cls-6" points="78.61 376.55 81.77 383.02 103.96 383.02 106.11 376.55 78.61 376.55"/>
      <path class="cls-13" d="M37.08,235.48s3.29-2.33,8.45-6.47h0l-22.88-16.81c-1.29,2.76-2.6,5.57-3.92,8.47l18.34,14.8Z"/>
      <path class="cls-1" d="M119.1,105.14c8.89.39,17.78-1.53,25.1-6.32-8.11,1.97-16.93,1.59-25.1-.66v6.99Z"/>
      <path class="cls-2" d="M94.28,22.62c-5.97,8.31-7.86,25.28-5.59,39.86,2.33,14.96,11.1,29.52,24.67,35.35,13.57,5.83,30.42,5.94,42.56-2.62,11.97-8.44,16.76-13.74,18.64-27.25,2.64-19.05,5.23-36.34-14.74-53.06-24.64-20.63-51.65-11.59-65.54,7.72Z"/>
      <path class="cls-15" d="M91.06,55.64s5.06-35.43,39.04-38.94l1.57-8.09,2.67,8.9s29.01-1.18,40.07,37.32l2.67-2.3S181.73,1.17,133.6.07c0,0-50.51-4.15-46.44,52.43l3.9,3.14Z"/>
      <path class="cls-10" d="M142.28,67.08s.47-15.2,19.48-10.55c0,0,1.55,15.1-19.48,10.55Z"/>
      <path class="cls-16" d="M121.72,67.99s-1.21-14.97-18.61-7.69c0,0,2.83,12.94,18.61,7.69Z"/>
      <circle class="cls-5" cx="113.63" cy="63.12" r="4.45"/>
      <circle class="cls-5" cx="150.44" cy="61.78" r="4.45"/>
      <ellipse class="cls-5" cx="118.12" cy="46.48" rx="2.19" ry="4.42" transform="translate(26.36 134.19) rotate(-65.19)"/>
      <ellipse class="cls-5" cx="144.61" cy="44.51" rx="4.42" ry="2.19" transform="translate(-.42 87.64) rotate(-33.67)"/>
      <path class="cls-17" d="M140.34,84.71l-11.87-.89c-.39-.03-.68-.35-.68-.74h0c0-.41.33-.74.74-.74h11.87c.41,0,.74.33.74.74v.89c0,.43-.37.77-.8.74Z"/>
      <path class="cls-1" d="M105.1,72.42c-1.38.97-1.98,2.45-2,3.05-.07,2.07.06,4.16.63,6.15s1.63,3.87,3.2,5.22c2.32,1.98,5.52,2.61,8.57,2.67.52.01,1.04,0,1.54-.14.81-.23,1.46-.81,2.06-1.4.48-.47.95-.96,1.24-1.56.3-.62.41-1.32.45-2.01.18-2.89-.67-5.83-2.37-8.18-1.43-1.98-3.44-3.53-5.71-4.42s-5.62-.8-7.62.6Z"/>
      <path class="cls-1" d="M132.27,71.83c.3.5.81.85,1.35,1.05s1.13.28,1.71.31c.23.01.49.02.67-.13.83-.66.47-2.92.12-3.75-.38-.87-1.15-1.68-2.02-2.06-2.56-1.1-2.68,3.15-1.82,4.57Z"/>
      <path class="cls-8" d="M151.36,73.16c-2.26,2.46-3.39,5.92-2.97,9.23.15,1.21.53,2.44,1.38,3.32.8.83,1.93,1.25,3.05,1.54,2.2.58,4.55.76,6.76.21,2.21-.55,4.27-1.89,5.43-3.85.37-.62.64-1.29.89-1.97.83-2.26,1.43-4.73.79-7.05-.58-2.09-2.39-4.1-4.39-4.97-2.17-.94-5.34-.07-7.35.91-1.34.65-2.56,1.54-3.57,2.63Z"/>
      <path class="cls-1" d="M83.09,63.78s5.36-1.66,6.67,4.16c0,0-.71,4.61-4.55.66,0,0-1.11-1.82,1.82-2.02,0,0,.4-1.65-3.94-2.8Z"/>
      <path class="cls-1" d="M179.21,63.59s-5.36-1.66-6.67,4.16c0,0,.71,4.61,4.55.66,0,0,1.11-1.82-1.82-2.02,0,0-.4-1.65,3.94-2.8Z"/>
      <g>
        <polygon class="cls-3" points="150.16 140.62 134.48 143.62 99.07 107.62 114.74 104.62 150.16 140.62"/>
        <polygon class="cls-3" points="123 125.11 138.67 128.11 164.07 107.62 148.39 104.62 123 125.11"/>
        <polygon class="cls-4" points="122.64 123.68 137.31 126.68 161.71 107.19 147.03 104.19 122.64 123.68"/>
        <polygon class="cls-13" points="149.67 138.68 135 141.68 101.61 107.19 116.28 104.19 149.67 138.68"/>
        <polygon class="cls-9" points="128.28 141.13 121.61 147.2 109.07 147.2 106.85 141.13 112.31 138.7 128.28 141.13"/>
        <polygon class="cls-14" points="128.28 141.13 128.28 152.46 121.81 157.31 108.87 157.31 105.63 150.64 106.85 141.13 109.07 147.2 121.61 147.2 128.28 141.13"/>
        <polygon class="cls-14" points="128.28 141.13 139.21 143.96 135.97 153.47 128.28 152.46 128.28 141.13"/>
        <polygon class="cls-9" points="139.21 143.96 143.66 153.47 146.49 232.95 129.09 232.14 135.97 153.47 139.21 143.96"/>
        <polygon class="cls-14" points="139.21 143.96 143.86 145.17 149.12 156.1 152.35 216.57 139.21 216.57 137.21 157.47 135.97 153.47 139.21 143.96"/>
      </g>
      <polygon class="cls-12" points="81.77 383.02 60.09 407.29 60.09 419.15 68.9 423.47 81.77 422.6 92.02 412.38 103.01 395.33 103.96 383.02 81.77 383.02"/>
      <polygon class="cls-19" points="64.66 402.17 68.9 408.9 84.01 405.54 103.96 383.02 103.01 395.33 92.02 412.38 81.77 422.6 68.9 423.47 60.09 419.15 60.09 407.29 64.66 402.17"/>
      <line class="cls-19" x1="67.33" y1="406.41" x2="60.09" y2="414.16"/>
      <line class="cls-19" x1="74.74" y1="407.6" x2="74.74" y2="423.08"/>
      <line class="cls-19" x1="87.18" y1="401.96" x2="93.37" y2="410.29"/>
      <line class="cls-19" x1="94.73" y1="393.43" x2="101.43" y2="397.78"/>
      <line class="cls-19" x1="82.02" y1="406.12" x2="85.28" y2="419.1"/>
      <polygon class="cls-6" points="181.86 376.27 178.7 382.74 156.51 382.74 154.35 376.27 181.86 376.27"/>
      <polygon class="cls-12" points="178.7 382.74 200.38 407.01 200.38 418.87 191.57 423.19 178.7 422.32 168.45 412.1 157.46 395.05 156.51 382.74 178.7 382.74"/>
      <polygon class="cls-19" points="195.8 401.89 191.57 408.63 176.45 405.26 156.51 382.74 157.46 395.05 168.45 412.1 178.7 422.32 191.57 423.19 200.38 418.87 200.38 407.01 195.8 401.89"/>
      <line class="cls-19" x1="193.13" y1="406.13" x2="200.38" y2="413.88"/>
      <line class="cls-19" x1="185.72" y1="407.32" x2="185.72" y2="422.8"/>
      <line class="cls-19" x1="173.28" y1="401.68" x2="167.1" y2="410.01"/>
      <line class="cls-19" x1="165.73" y1="393.15" x2="159.04" y2="397.5"/>
      <line class="cls-19" x1="178.45" y1="405.84" x2="175.19" y2="418.82"/>
    </g>
  </g>
</svg>