<?xml version="1.0" encoding="UTF-8"?>
<svg id="_레이어_2" data-name="레이어 2" xmlns="http://www.w3.org/2000/svg" viewBox="0 0 263.22 423.58">
  <defs>
    <style>
      .cls-1 {
        fill: #f9aa6d;
      }

      .cls-1, .cls-2, .cls-3, .cls-4, .cls-5, .cls-6, .cls-7, .cls-8, .cls-9, .cls-10, .cls-11, .cls-12 {
        stroke-width: 0px;
      }

      .cls-2 {
        fill: #696b43;
      }

      .cls-3 {
        fill: #deddda;
      }

      .cls-4 {
        fill: #a48d64;
      }

      .cls-5 {
        fill: #c8c97e;
      }

      .cls-6 {
        fill: #c2895d;
      }

      .cls-7 {
        fill: #ae9e7b;
      }

      .cls-8 {
        fill: #dfdfdd;
      }

      .cls-9 {
        fill: #b7784e;
      }

      .cls-10 {
        fill: #454748;
      }

      .cls-11 {
        fill: #998b70;
      }

      .cls-12 {
        fill: #bab967;
      }
    </style>
  </defs>
  <g id="Layer_1" data-name="Layer 1">
    <g>
      <rect class="cls-1" x="119.1" y="89.23" width="25.44" height="19.44"/>
      <polygon class="cls-1" points="225.74 230.82 229.51 252.93 234.9 252.93 236.25 239.83 251.89 254.55 255.94 251.85 240.84 237.29 260.06 249.5 263.22 245.11 244.48 233.78 261.33 239.83 263.22 234.97 246.77 229.3 259.35 231.83 258.81 227.25 240.03 219.49 225.74 230.82"/>
      <path class="cls-12" d="M161.79,107.25s31.99,1.85,82.69,113.49l-18.34,14.8s-42.76-30.26-62.02-66.58l-2.33-61.72Z"/>
      <path class="cls-8" d="M226.14,235.55s-3.29-2.33-8.45-6.47h0l22.88-16.81c1.29,2.76,2.6,5.57,3.92,8.47l-18.34,14.8Z"/>
      <polygon class="cls-1" points="37.48 230.76 33.71 252.87 28.31 252.87 26.97 239.77 11.33 254.49 7.28 251.79 22.38 237.23 3.16 249.44 0 245.05 18.74 233.72 1.89 239.77 0 234.9 16.45 229.24 3.87 231.77 4.4 227.19 23.19 219.43 37.48 230.76"/>
      <g>
        <ellipse class="cls-10" cx="99.82" cy="86.4" rx="6.88" ry="8.29"/>
        <ellipse class="cls-10" cx="94.31" cy="95.27" rx="6.09" ry="5.51" transform="translate(-35.35 129.31) rotate(-60)"/>
        <ellipse class="cls-10" cx="88.68" cy="101.97" rx="5.17" ry="3.98" transform="translate(-43.97 127.78) rotate(-60)"/>
        <ellipse class="cls-10" cx="84.01" cy="107.25" rx="5.17" ry="3.98" transform="translate(-52.2 104.93) rotate(-50.95)"/>
        <ellipse class="cls-10" cx="79.02" cy="111.02" rx="4.37" ry="3.44" transform="translate(-44.92 54.38) rotate(-30)"/>
        <path class="cls-10" d="M74.54,117.46c-2.31.7-5.72.68-6.27-1.13s1.97-4.74,4.28-5.44,4.63.21,5.17,2.02-.88,3.85-3.18,4.55Z"/>
        <path class="cls-10" d="M68.27,116.33s-4.65-2.16-7.21-2.06l1.01,5.97,2.6-.81-1.38,2.83,1.38.81s3.27-3.51,3.61-6.74Z"/>
      </g>
      <polygon class="cls-7" points="176.29 231.58 83.36 231.58 68.9 370.61 78.61 376.55 106.11 376.55 117.1 372.23 129.82 259.51 142.55 372.23 153.54 376.55 181.04 376.55 190.75 370.61 176.29 231.58"/>
      <path class="cls-12" d="M101.43,107.19s-31.99,1.85-82.69,113.49l18.34,14.8s42.76-30.26,62.02-66.58l2.33-61.72Z"/>
      <path class="cls-5" d="M101.43,107.19s-20.13,57.94-22.82,123.74c0,0,62.42,9.25,106.64-1,0,0-6.59-74.98-23.72-122.74h-60.1Z"/>
      <path class="cls-1" d="M88.24,55.1c.05-3.31-3.35-4.03-6.64-3.81s-5.11,2.89-6.12,6.04c-1.01,3.15-1.45,4.64-.1,7.65,3.04,6.8,10.2,11.56,17.65,11.71.08-1.26-4.78-21.6-4.78-21.6Z"/>
      <path class="cls-1" d="M176.03,55.1c-.05-3.31,3.35-4.03,6.64-3.81s5.11,2.89,6.12,6.04c1.01,3.15,1.45,4.64.1,7.65-3.04,6.8-10.2,11.56-17.65,11.71-.08-1.26,4.78-21.6,4.78-21.6Z"/>
      <polygon class="cls-4" points="78.61 376.55 81.77 383.02 103.96 383.02 106.11 376.55 78.61 376.55"/>
      <path class="cls-8" d="M37.08,235.48s3.29-2.33,8.45-6.47h0l-22.88-16.81c-1.29,2.76-2.6,5.57-3.92,8.47l18.34,14.8Z"/>
      <path class="cls-10" d="M133.6.07s-50.51-4.15-46.44,52.43l.67.54c.11,3.18.39,6.36.87,9.43,2.33,14.96,11.1,29.52,24.67,35.35,13.57,5.83,30.42,5.94,42.56-2.62,11.97-8.44,16.76-13.74,18.64-27.25.7-5.01,1.38-9.9,1.66-14.68l.86-.74S181.73,1.17,133.6.07Z"/>
      <polygon class="cls-6" points="81.77 383.02 60.09 407.29 60.09 419.15 68.9 423.47 81.77 422.6 92.02 412.38 103.01 395.33 103.96 383.02 81.77 383.02"/>
      <polygon class="cls-4" points="181.86 376.27 178.7 382.74 156.51 382.74 154.35 376.27 181.86 376.27"/>
      <polygon class="cls-6" points="178.7 382.74 200.38 407.01 200.38 418.87 191.57 423.19 178.7 422.32 168.45 412.1 157.46 395.05 156.51 382.74 178.7 382.74"/>
      <polygon class="cls-9" points="86.92 383.02 61.06 412.61 60.09 419.15 68.9 423.47 81.77 422.6 92.02 412.38 103.01 395.33 103.96 383.02 86.92 383.02"/>
      <polygon class="cls-9" points="173.54 383.13 199.41 412.72 200.38 419.26 191.57 423.58 178.7 422.71 168.45 412.49 157.46 395.44 156.51 383.13 173.54 383.13"/>
      <polygon class="cls-2" points="160.29 106.91 102.66 106.91 98.93 107.62 164.01 107.62 160.29 106.91"/>
      <polygon class="cls-11" points="129.82 259.51 168.11 254.49 132.06 279.36 129.82 259.51"/>
      <polygon class="cls-11" points="129.82 259.51 103.96 254.55 127.58 279.36 129.82 259.51"/>
      <path class="cls-3" d="M102.66,106.91h57.63s-27.61-10.93-57.63,0Z"/>
    </g>
  </g>
</svg>