<?xml version="1.0" encoding="UTF-8"?>
<svg id="_레이어_2" data-name="레이어 2" xmlns="http://www.w3.org/2000/svg" viewBox="0 0 206.44 346.65">
  <defs>
    <style>
      .cls-1 {
        fill: #f9aa6d;
      }

      .cls-1, .cls-2, .cls-3, .cls-4, .cls-5, .cls-6, .cls-7, .cls-8, .cls-9, .cls-10, .cls-11, .cls-12, .cls-13, .cls-14, .cls-15, .cls-16, .cls-17 {
        stroke-width: 0px;
      }

      .cls-2 {
        fill: #fbbf94;
      }

      .cls-3 {
        fill: #ffce78;
      }

      .cls-4 {
        fill: #deddda;
      }

      .cls-5 {
        fill: #4a4c4e;
      }

      .cls-6 {
        fill: #f8a86d;
      }

      .cls-7 {
        fill: #dfe1dd;
      }

      .cls-8 {
        fill: #f05f4d;
      }

      .cls-9 {
        fill: #fffdf8;
      }

      .cls-10 {
        fill: #804734;
      }

      .cls-11 {
        fill: #ffdfa1;
      }

      .cls-12 {
        fill: #f26e52;
      }

      .cls-13 {
        fill: #f6976e;
      }

      .cls-14 {
        fill: #dfdfdd;
      }

      .cls-15 {
        fill: #eceaeb;
      }

      .cls-16 {
        fill: #454748;
      }

      .cls-17 {
        fill: #fff;
      }

      .cls-18 {
        fill: none;
        stroke: #c2895d;
        stroke-miterlimit: 10;
        stroke-width: 3px;
      }
    </style>
  </defs>
  <g id="Layer_1" data-name="Layer 1">
    <g>
      <g>
        <polygon class="cls-15" points="62.25 284.54 59.74 311.66 66.37 316.22 85.14 316.22 92.64 312.9 95.48 284.54 62.25 284.54"/>
        <polygon class="cls-15" points="107.16 284.54 110 312.9 117.51 316.22 136.28 316.22 142.9 311.66 140.4 284.54 107.16 284.54"/>
      </g>
      <polygon class="cls-4" points="141.28 294.09 140.4 284.54 107.16 284.54 107.77 290.57 141.28 294.09"/>
      <polygon class="cls-4" points="94.84 290.97 61.53 292.29 62.25 284.54 95.9 284.58 94.84 290.97"/>
      <path class="cls-8" d="M128.18,90.1s26.88,1.56,69.47,95.35l-15.41,12.44s-35.93-25.42-52.11-55.93l-1.96-51.85Z"/>
      <path class="cls-8" d="M77.47,90.05s-26.88,1.56-69.47,95.35l15.41,12.44s35.93-25.42,52.11-55.93l1.96-51.85Z"/>
      <polygon class="cls-2" points="24.09 190.72 21.66 204.93 18.2 204.93 17.33 196.52 7.28 205.97 4.68 204.24 14.38 194.88 2.03 202.73 0 199.91 12.04 192.63 1.21 196.52 0 193.39 10.57 189.75 2.48 191.38 2.83 188.43 14.9 183.44 24.09 190.72"/>
      <polygon class="cls-2" points="182.35 190.72 184.77 204.93 188.24 204.93 189.11 196.52 199.16 205.97 201.76 204.24 192.05 194.88 204.41 202.73 206.44 199.91 194.39 192.63 205.22 196.52 206.44 193.39 195.87 189.75 203.95 191.38 203.61 188.43 191.53 183.44 182.35 190.72"/>
      <path class="cls-14" d="M23.41,197.84s2.77-1.96,7.1-5.43h0l-19.22-14.12c-1.09,2.32-2.18,4.68-3.29,7.12l15.41,12.44Z"/>
      <path class="cls-11" d="M69.18,141.01l-51.53,133.05,35.77,10.94c30.29,5.34,61.2,6.22,91.75,2.64l41.37-9.92-47.88-135.15-69.47-1.57Z"/>
      <path class="cls-3" d="M75.49,144.76c-1.58-.19-17.82,82.75-17.82,82.75l27.66-83.57-9.84.82Z"/>
      <polygon class="cls-3" points="108.63 146.83 124.58 260.09 118.64 144 108.63 146.83"/>
      <polygon class="cls-3" points="128.87 144 144.53 207.1 131.7 142.88 128.87 144"/>
      <polygon class="cls-4" points="66.37 316.22 68.52 321.19 83.67 321.19 85.14 316.22 66.37 316.22"/>
      <polygon class="cls-4" points="136.84 316 134.68 320.98 119.54 320.98 118.06 316 136.84 316"/>
      <polygon class="cls-15" points="134.68 320.98 149.48 335.34 149.48 342.36 143.46 344.91 134.68 344.4 127.68 338.35 120.18 328.26 119.54 320.98 134.68 320.98"/>
      <polygon class="cls-18" points="146.35 332.31 143.46 336.29 133.14 334.3 119.54 320.98 120.18 328.26 127.68 338.35 134.68 344.4 143.46 344.91 149.48 342.36 149.48 335.34 146.35 332.31"/>
      <line class="cls-18" x1="144.53" y1="334.82" x2="149.48" y2="339.41"/>
      <line class="cls-18" x1="139.47" y1="335.52" x2="139.47" y2="344.68"/>
      <line class="cls-18" x1="130.98" y1="332.18" x2="126.76" y2="337.11"/>
      <line class="cls-18" x1="125.83" y1="327.14" x2="121.26" y2="329.71"/>
      <line class="cls-18" x1="134.51" y1="334.65" x2="132.28" y2="342.33"/>
      <polygon class="cls-15" points="67.95 321.19 53.15 335.55 53.15 342.57 59.16 345.13 67.95 344.61 74.94 338.57 82.45 328.48 83.09 321.19 67.95 321.19"/>
      <polygon class="cls-18" points="56.27 332.52 59.16 336.51 69.48 334.52 83.09 321.19 82.45 328.48 74.94 338.57 67.95 344.61 59.16 345.13 53.15 342.57 53.15 335.55 56.27 332.52"/>
      <line class="cls-18" x1="58.1" y1="335.04" x2="53.15" y2="339.62"/>
      <line class="cls-18" x1="63.15" y1="335.74" x2="63.15" y2="344.89"/>
      <line class="cls-18" x1="71.64" y1="332.4" x2="75.86" y2="337.33"/>
      <line class="cls-18" x1="76.8" y1="327.36" x2="81.37" y2="329.93"/>
      <line class="cls-18" x1="68.12" y1="334.86" x2="70.34" y2="342.54"/>
      <path class="cls-14" d="M182.24,197.89s-2.77-1.96-7.1-5.43h0l19.22-14.12c1.09,2.32,2.18,4.68,3.29,7.12l-15.41,12.44Z"/>
      <g>
        <ellipse class="cls-16" cx="131.86" cy="70.3" rx="7.28" ry="9.32"/>
        <path class="cls-16" d="M132.64,83.37c1.78,3.28,5.49,4.54,8.28,2.83,2.79-1.71,3.61-5.75,1.83-9.03-1.78-3.28-5.49-4.54-8.28-2.83-2.79,1.71-3.61,5.75-1.83,9.03Z"/>
        <ellipse class="cls-16" cx="143.65" cy="87.8" rx="4.27" ry="5.74" transform="translate(-23.59 68.4) rotate(-24.82)"/>
        <path class="cls-16" d="M145.31,96.56c1.91,2.49,4.92,3.25,6.73,1.7s1.73-4.84-.18-7.34-4.92-3.25-6.73-1.7-1.73,4.84.18,7.34Z"/>
        <path class="cls-16" d="M152.06,101.31c2.21,1.36,4.82.96,5.82-.89,1-1.85.03-4.44-2.18-5.8-2.21-1.36-4.82-.96-5.82.89-1,1.85-.03,4.44,2.18,5.8Z"/>
        <path class="cls-16" d="M158.61,105.22c2.44.79,6.06.77,6.64-1.27.58-2.04-2.09-5.33-4.53-6.12s-4.9.23-5.48,2.27c-.58,2.04.93,4.33,3.37,5.12Z"/>
        <path class="cls-16" d="M165.25,103.94s4.92-2.43,7.64-2.31l-1.07,6.71-2.75-.91,1.46,3.18-1.46.91s-3.46-3.94-3.82-7.58Z"/>
      </g>
      <path class="cls-12" d="M77.47,90.05s-1.07,38.88-13.17,52.96c0,0,42.64,8.61,79.79,0,0,0-11.71-14.08-16.13-52.96h-50.49Z"/>
      <path class="cls-2" d="M66.38,46.29c.04-2.78-2.81-3.39-5.58-3.2s-4.3,2.43-5.15,5.07-1.22,3.89-.08,6.43c2.55,5.72,8.57,9.71,14.83,9.84.07-1.06-4.02-18.14-4.02-18.14Z"/>
      <path class="cls-2" d="M140.15,46.29c-.04-2.78,2.81-3.39,5.58-3.2s4.3,2.43,5.15,5.07c.85,2.64,1.22,3.89.08,6.43-2.55,5.72-8.57,9.71-14.83,9.84-.07-1.06,4.02-18.14,4.02-18.14Z"/>
      <polygon class="cls-2" points="113.69 96.34 103 103.9 92.32 96.34 92.32 74.97 113.69 74.97 113.69 96.34"/>
      <polygon class="cls-10" points="87.17 118.14 100.34 120.66 130.09 90.41 116.92 87.89 87.17 118.14"/>
      <polygon class="cls-10" points="109.99 105.11 96.82 107.63 75.49 90.41 88.65 87.89 109.99 105.11"/>
      <polygon class="cls-4" points="110.29 103.9 97.96 106.42 77.47 90.05 89.8 87.53 110.29 103.9"/>
      <polygon class="cls-15" points="87.58 116.51 99.91 119.03 127.96 90.05 115.63 87.53 87.58 116.51"/>
      <path class="cls-1" d="M92.32,88.33c7.47.33,14.93-1.28,21.08-5.31-6.81,1.66-14.22,1.34-21.08-.56v5.87Z"/>
      <path class="cls-2" d="M71.46,19c-5.02,6.98-6.6,21.23-4.69,33.48,1.95,12.56,9.32,24.8,20.73,29.7,11.4,4.9,25.55,4.99,35.75-2.2,10.06-7.09,14.08-11.54,15.66-22.9,2.22-16.01,4.39-30.53-12.39-44.58-20.7-17.33-43.39-9.74-55.06,6.49Z"/>
      <path class="cls-16" d="M68.75,46.75s4.25-29.77,32.8-32.71l1.32-6.8,2.25,7.48s24.37-.99,33.66,31.35l2.25-1.94S144.93.99,104.49.06c0,0-42.43-3.49-39.02,44.05l3.28,2.64Z"/>
      <path class="cls-9" d="M111.79,56.36s.4-12.77,16.37-8.86c0,0,1.3,12.69-16.37,8.86Z"/>
      <path class="cls-17" d="M94.51,57.12s-1.02-12.57-15.63-6.46c0,0,2.38,10.87,15.63,6.46Z"/>
      <circle class="cls-5" cx="87.72" cy="53.03" r="3.74"/>
      <circle class="cls-5" cx="118.64" cy="51.9" r="3.74"/>
      <ellipse class="cls-5" cx="91.48" cy="38.18" rx="3.33" ry="1.06" transform="translate(-7.62 40.46) rotate(-23.97)"/>
      <ellipse class="cls-5" cx="114.9" cy="38.18" rx="1.06" ry="3.33" transform="translate(45.2 137.19) rotate(-73.23)"/>
      <path class="cls-1" d="M130.47,59.51c1.2.75,1.77,1.97,1.81,2.47.15,1.73.14,3.5-.25,5.19-.39,1.69-1.19,3.32-2.45,4.52-1.86,1.77-4.51,2.43-7.07,2.63-.43.03-.87.05-1.29-.04-.69-.16-1.26-.61-1.79-1.08-.42-.37-.84-.76-1.11-1.25-.28-.51-.4-1.09-.47-1.67-.28-2.42.3-4.92,1.62-6.97,1.11-1.73,2.73-3.11,4.6-3.96s4.68-.92,6.42.16Z"/>
      <path class="cls-1" d="M103.38,60.35c.25.42.68.71,1.13.88s.95.23,1.43.26c.19.01.41.01.56-.11.7-.55.4-2.46.1-3.15-.32-.73-.96-1.41-1.7-1.73-2.15-.93-2.25,2.65-1.52,3.84Z"/>
      <path class="cls-6" d="M91.69,62.2c2,1.96,3.11,4.82,2.91,7.61-.08,1.02-.34,2.07-1.01,2.85-.64.73-1.56,1.14-2.49,1.43-1.82.59-3.78.84-5.66.48s-3.67-1.39-4.72-2.99c-.34-.51-.59-1.06-.83-1.61-.8-1.86-1.41-3.91-.97-5.88.39-1.78,1.82-3.54,3.46-4.36,1.78-.89,4.48-.29,6.21.43,1.15.48,2.22,1.17,3.11,2.05Z"/>
      <path class="cls-1" d="M62.06,53.58s4.5-1.4,5.61,3.49c0,0-.59,3.87-3.82.56,0,0-.93-1.53,1.53-1.7,0,0,.34-1.39-3.31-2.35Z"/>
      <path class="cls-1" d="M142.82,53.42s-4.5-1.4-5.61,3.49c0,0,.59,3.87,3.82.56,0,0,.93-1.53-1.53-1.7,0,0-.34-1.39,3.31-2.35Z"/>
      <polygon class="cls-7" points="105.55 118.57 111.15 123.66 121.69 123.66 123.56 118.57 118.97 116.53 105.55 118.57"/>
      <polygon class="cls-15" points="105.55 118.57 105.55 128.08 110.98 132.16 121.86 132.16 124.58 126.55 123.56 118.57 121.69 123.66 111.15 123.66 105.55 118.57"/>
      <polygon class="cls-15" points="105.55 118.57 96.37 120.95 99.09 128.93 105.55 128.08 105.55 118.57"/>
      <polygon class="cls-7" points="96.37 120.95 92.63 128.93 90.26 195.71 104.87 195.03 99.09 128.93 96.37 120.95"/>
      <polygon class="cls-15" points="96.37 120.95 92.46 121.97 88.05 131.14 85.33 181.95 96.37 181.95 98.05 132.29 99.09 128.93 96.37 120.95"/>
      <path class="cls-13" d="M101.21,71.85s1.65-3.17,2.89-1.21c0,0,3.67-1.95,4.07,1.44,0,0-3.5,3.95-6.96-.22Z"/>
    </g>
  </g>
</svg>