<?xml version="1.0" encoding="UTF-8"?>
<svg id="_레이어_2" data-name="레이어 2" xmlns="http://www.w3.org/2000/svg" viewBox="0 0 206.44 345.13">
  <defs>
    <style>
      .cls-1 {
        fill: #f9aa6d;
      }

      .cls-1, .cls-2, .cls-3, .cls-4, .cls-5, .cls-6, .cls-7, .cls-8, .cls-9, .cls-10, .cls-11, .cls-12, .cls-13, .cls-14 {
        stroke-width: 0px;
      }

      .cls-2 {
        fill: #fbbf94;
      }

      .cls-3 {
        fill: #ffce78;
      }

      .cls-4 {
        fill: #deddda;
      }

      .cls-5 {
        fill: #f8a86d;
      }

      .cls-6 {
        fill: #c2895d;
      }

      .cls-7 {
        fill: #f05f4d;
      }

      .cls-8 {
        fill: #804734;
      }

      .cls-9 {
        fill: #ffdfa1;
      }

      .cls-10 {
        fill: #f26e52;
      }

      .cls-11 {
        fill: #dfdfdd;
      }

      .cls-12 {
        fill: #b7784e;
      }

      .cls-13 {
        fill: #eceaeb;
      }

      .cls-14 {
        fill: #454748;
      }
    </style>
  </defs>
  <g id="Layer_1" data-name="Layer 1">
    <g>
      <rect class="cls-5" x="92.32" y="74.97" width="21.37" height="21.37"/>
      <polygon class="cls-2" points="24.09 190.72 21.66 204.93 18.2 204.93 17.33 196.52 7.28 205.97 4.68 204.24 14.38 194.88 2.03 202.73 0 199.91 12.04 192.63 1.21 196.52 0 193.39 10.57 189.75 2.48 191.38 2.83 188.43 14.9 183.44 24.09 190.72"/>
      <polygon class="cls-2" points="182.35 190.72 184.77 204.93 188.24 204.93 189.11 196.52 199.16 205.97 201.76 204.24 192.05 194.88 204.41 202.73 206.44 199.91 194.39 192.63 205.22 196.52 206.44 193.39 195.87 189.75 203.95 191.38 203.61 188.43 191.53 183.44 182.35 190.72"/>
      <polygon class="cls-6" points="134.68 320.98 149.48 335.34 149.48 342.36 143.46 344.91 134.68 344.4 127.68 338.35 120.18 328.26 119.54 320.98 134.68 320.98"/>
      <polygon class="cls-12" points="130.31 320.98 149.48 338.49 149.48 342.36 143.46 344.91 134.68 344.4 127.68 338.35 120.18 328.26 119.54 320.98 130.31 320.98"/>
      <polygon class="cls-4" points="66.37 316.22 68.52 321.19 83.67 321.19 85.14 316.22 66.37 316.22"/>
      <polygon class="cls-4" points="136.84 316 134.68 320.98 119.54 320.98 118.06 316 136.84 316"/>
      <polygon class="cls-6" points="67.95 321.19 53.15 335.55 53.15 342.57 59.16 345.13 67.95 344.61 74.94 338.57 82.45 328.48 83.09 321.19 67.95 321.19"/>
      <g>
        <polygon class="cls-13" points="62.25 284.54 59.74 311.66 66.37 316.22 85.14 316.22 92.64 312.9 95.48 284.54 62.25 284.54"/>
        <polygon class="cls-13" points="107.16 284.54 110 312.9 117.51 316.22 136.28 316.22 142.9 311.66 140.4 284.54 107.16 284.54"/>
      </g>
      <polygon class="cls-12" points="72.32 321.19 53.15 338.7 53.15 342.57 59.16 345.13 67.95 344.61 74.94 338.57 82.45 328.48 83.09 321.19 72.32 321.19"/>
      <polygon class="cls-4" points="61.85 288.88 94.11 298.29 95.48 284.58 62.25 284.58 61.85 288.88"/>
      <polygon class="cls-4" points="140.4 285.58 107.16 285.58 108.54 299.33 140.8 289.95 140.4 285.58"/>
      <path class="cls-7" d="M128.18,90.1s26.88,1.56,69.47,95.35l-15.41,12.44s-35.93-25.42-52.11-55.93l-1.96-51.85Z"/>
      <path class="cls-7" d="M77.47,90.05s-26.88,1.56-69.47,95.35l15.41,12.44s35.93-25.42,52.11-55.93l1.96-51.85Z"/>
      <path class="cls-11" d="M182.24,197.89s-2.77-1.96-7.1-5.43h0l19.22-14.12c1.09,2.32,2.18,4.68,3.29,7.12l-15.41,12.44Z"/>
      <g>
        <ellipse class="cls-14" cx="131.86" cy="70.3" rx="7.28" ry="9.32"/>
        <path class="cls-14" d="M132.64,83.37c1.78,3.28,5.49,4.54,8.28,2.83,2.79-1.71,3.61-5.75,1.83-9.03-1.78-3.28-5.49-4.54-8.28-2.83-2.79,1.71-3.61,5.75-1.83,9.03Z"/>
        <ellipse class="cls-14" cx="143.65" cy="87.8" rx="4.27" ry="5.74" transform="translate(-23.59 68.4) rotate(-24.82)"/>
        <path class="cls-14" d="M145.31,96.56c1.91,2.49,4.92,3.25,6.73,1.7s1.73-4.84-.18-7.34c-1.91-2.49-4.92-3.25-6.73-1.7s-1.73,4.84.18,7.34Z"/>
        <path class="cls-14" d="M152.06,101.31c2.21,1.36,4.82.96,5.82-.89s.03-4.44-2.18-5.8-4.82-.96-5.82.89c-1,1.85-.03,4.44,2.18,5.8Z"/>
        <path class="cls-14" d="M158.61,105.22c2.44.79,6.06.77,6.64-1.27.58-2.04-2.09-5.33-4.53-6.12-2.44-.79-4.9.23-5.48,2.27-.58,2.04.93,4.33,3.37,5.12Z"/>
        <path class="cls-14" d="M165.25,103.94s4.92-2.43,7.64-2.31l-1.07,6.71-2.75-.91,1.46,3.18-1.46.91s-3.46-3.94-3.82-7.58Z"/>
      </g>
      <path class="cls-1" d="M66.38,46.29c.04-2.78-2.81-3.39-5.58-3.2s-4.3,2.43-5.15,5.07c-.85,2.64-1.22,3.89-.08,6.43,2.55,5.72,8.57,9.71,14.83,9.84.07-1.06-4.02-18.14-4.02-18.14Z"/>
      <path class="cls-1" d="M140.15,46.29c-.04-2.78,2.81-3.39,5.58-3.2s4.3,2.43,5.15,5.07,1.22,3.89.08,6.43c-2.55,5.72-8.57,9.71-14.83,9.84-.07-1.06,4.02-18.14,4.02-18.14Z"/>
      <path class="cls-11" d="M23.41,197.84s2.77-1.96,7.1-5.43h0l-19.22-14.12c-1.09,2.32-2.18,4.68-3.29,7.12l15.41,12.44Z"/>
      <path class="cls-14" d="M104.49.06s-42.43-3.49-39.02,44.05l.56.45c.09,2.67.33,5.34.73,7.93,1.95,12.56,9.32,24.8,20.73,29.7,11.4,4.9,25.55,4.99,35.75-2.2,10.06-7.09,14.08-11.54,15.66-22.9.58-4.21,1.16-8.31,1.39-12.34l.72-.62S144.93.99,104.49.06Z"/>
      <path class="cls-9" d="M69.18,141.01l-51.53,133.05,35.77,10.94c30.29,5.34,61.2,6.22,91.75,2.64l41.37-9.92-47.88-135.15-69.47-1.57Z"/>
      <path class="cls-3" d="M73.83,142.4c-1.58-.19-17.29,67.94-17.29,67.94l27.13-68.75-9.84.82Z"/>
      <polygon class="cls-3" points="94.12 143.86 77.61 252.95 104.13 141.03 94.12 143.86"/>
      <polygon class="cls-3" points="124.08 142.88 148.59 227.51 130.04 140.52 124.08 142.88"/>
      <path class="cls-10" d="M77.47,90.05s-1.07,38.88-13.17,52.96c0,0,42.64,8.61,79.79,0,0,0-10.77-14.06-15.18-52.94h-51.43Z"/>
      <polygon class="cls-8" points="125.91 89.35 79.62 89.35 76.63 90.07 128.9 90.07 125.91 89.35"/>
      <path class="cls-4" d="M125.91,89.35h-46.29s25.95-8.22,46.29,0Z"/>
    </g>
  </g>
</svg>