<?xml version="1.0" encoding="UTF-8"?>
<svg id="_레이어_2" data-name="레이어 2" xmlns="http://www.w3.org/2000/svg" viewBox="0 0 292.34 514.72">
  <defs>
    <style>
      .cls-1 {
        fill: #f9aa6d;
      }

      .cls-1, .cls-2, .cls-3, .cls-4, .cls-5, .cls-6, .cls-7, .cls-8, .cls-9, .cls-10, .cls-11, .cls-12, .cls-13, .cls-14, .cls-15, .cls-16, .cls-17, .cls-18, .cls-19, .cls-20, .cls-21, .cls-22, .cls-23 {
        stroke-width: 0px;
      }

      .cls-2 {
        fill: #fbbf94;
      }

      .cls-3 {
        fill: #deddda;
      }

      .cls-4 {
        fill: #dfe1dd;
      }

      .cls-5 {
        fill: #eaeaea;
      }

      .cls-6 {
        fill: #eaece9;
      }

      .cls-7 {
        fill: #dfaa25;
      }

      .cls-8 {
        fill: #d7dcd8;
      }

      .cls-9 {
        fill: #75adbd;
      }

      .cls-10 {
        fill: #8c3e22;
      }

      .cls-24 {
        fill: none;
        stroke: #c2895d;
        stroke-miterlimit: 10;
        stroke-width: 4px;
      }

      .cls-11 {
        fill: #794632;
      }

      .cls-12 {
        fill: #782f18;
      }

      .cls-13 {
        fill: #5795a7;
      }

      .cls-14 {
        fill: #e5e5e4;
      }

      .cls-15 {
        fill: #cb6f28;
      }

      .cls-16 {
        fill: #f6976e;
      }

      .cls-17 {
        fill: #5d9fae;
      }

      .cls-18 {
        fill: #dfdfdd;
      }

      .cls-19 {
        fill: #eceaeb;
      }

      .cls-20 {
        fill: #c6c5c5;
      }

      .cls-21 {
        fill: #454748;
      }

      .cls-22 {
        fill: #517840;
      }

      .cls-23 {
        fill: #5f954a;
      }
    </style>
  </defs>
  <g id="Layer_1" data-name="Layer 1">
    <g>
      <polygon class="cls-6" points="87.71 460.93 83.45 455.88 85.58 437.68 122.07 442.94 122.07 457.9 118.05 460.93 87.71 460.93"/>
      <polygon class="cls-6" points="201.48 460.84 205.74 455.78 203.61 437.58 167.12 442.84 167.12 457.81 171.14 460.84 201.48 460.84"/>
      <g>
        <path class="cls-8" d="M84.15,450.93c10.09-.51,26.72-1.32,38.03-1.76v-6.14l-36.49-5.26-1.54,13.16Z"/>
        <polygon class="cls-8" points="205.3 451.19 203.72 437.68 167.23 442.94 167.23 449.87 205.3 451.19"/>
      </g>
      <polygon class="cls-2" points="251 271.68 257.16 295.72 263.11 295.72 262.6 282.23 279.85 299.46 284.31 296.31 267.65 279.25 288.86 293.56 292.34 288.41 271.67 275.15 290.26 282.23 292.34 276.54 274.2 269.9 288.08 272.87 287.48 267.5 266.76 258.41 251 271.68"/>
      <path class="cls-13" d="M179.46,126.06s35.29,2.17,91.21,132.9l-20.23,17.33s-47.17-35.43-68.41-77.96l-2.57-72.27Z"/>
      <path class="cls-18" d="M250.44,276.29s-3.63-2.73-9.33-7.57h0l25.23-19.68c1.43,3.23,2.86,6.52,4.32,9.92l-20.23,17.33Z"/>
      <polygon class="cls-2" points="41.35 271.6 35.18 294.73 29.23 294.73 29.74 282.16 12.49 299.39 8.03 296.23 24.69 279.18 3.48 293.48 0 288.34 20.67 275.08 2.08 282.16 0 276.46 18.14 269.83 4.26 272.8 4.86 267.43 25.58 258.34 41.35 271.6"/>
      <path class="cls-13" d="M112.88,125.99s-35.29,2.17-91.21,132.9l20.23,17.33s47.17-35.43,68.41-77.96l2.57-72.27Z"/>
      <path class="cls-18" d="M41.9,276.22s3.63-2.73,9.33-7.57h0l-25.23-19.68c-1.43,3.23-2.86,6.52-4.32,9.92l20.23,17.33Z"/>
      <path class="cls-23" d="M97.81,228.24l-49.47,205.79,8.67,2.42c56.87,15.85,116.84,16.95,174.26,3.18l9.85-2.36-45.59-211.75-97.72,2.73Z"/>
      <path class="cls-21" d="M107.94,90.45s-8.09-1.46-9.17,5.01c0,0-11.6.27-6.2,12.67,0,0-4.04,8.63,11.6,7.82,0,0,13.21,7.01,15.91-6.2l-12.13-19.31Z"/>
      <polygon class="cls-8" points="97.81 224.71 97.81 228.24 195.53 225.52 195.53 220.66 110.28 219.21 97.81 224.71"/>
      <path class="cls-14" d="M105.49,228.24l-22.05,184.76h0c38.19,8.01,77.57,8.56,115.96,1.61l11.13-2.01-25.22-186.79-79.82,2.44Z"/>
      <polygon class="cls-23" points="95.32 203.24 91.13 216.89 97.81 224.71 165.64 222.55 171.84 224.71 195.53 220.66 202.54 213.98 198 203.24 95.32 203.24"/>
      <path class="cls-17" d="M112.88,126.6s-7.83,17-21.49,79.3c0,0,62.4,8.07,111.55-.02,0,0-8.73-39.38-23.77-79.29h-66.29Z"/>
      <path class="cls-2" d="M100.33,69.15c.05-3.65-3.69-4.45-7.33-4.2-3.64.25-5.64,3.19-6.76,6.66-1.12,3.47-1.6,5.11-.11,8.44,3.35,7.5,11.25,12.75,19.47,12.92.09-1.39-5.27-23.82-5.27-23.82Z"/>
      <path class="cls-2" d="M193.17,69.15c-.05-3.65,3.69-4.45,7.33-4.2s5.64,3.19,6.76,6.66,1.6,5.11.11,8.44c-3.35,7.5-11.25,12.75-19.47,12.92-.09-1.39,5.27-23.82,5.27-23.82Z"/>
      <path class="cls-9" d="M178.6,168.05l.78,40.53c7.98-.57,15.93-1.43,23.56-2.69,0,0-8.73-39.38-23.77-79.29h-66.29s-7.83,17-21.49,79.3c0,0,3.78.49,10.21,1.1l3.16-22.42,1.06,22.81c15.73,1.38,42.25,3,68.97,1.47l3.81-40.83Z"/>
      <polygon class="cls-2" points="160.44 134.86 146.41 144.79 132.38 134.86 132.38 106.8 160.44 106.8 160.44 134.86"/>
      <polygon class="cls-11" points="125.62 163.48 142.91 166.79 181.97 127.08 164.68 123.77 125.62 163.48"/>
      <polygon class="cls-11" points="155.58 146.37 138.29 149.68 110.28 127.08 127.57 123.77 155.58 146.37"/>
      <polygon class="cls-3" points="155.97 144.79 139.79 148.1 112.88 126.6 129.07 123.29 155.97 144.79"/>
      <polygon class="cls-19" points="126.15 161.34 142.34 164.65 179.17 126.6 162.99 123.29 126.15 161.34"/>
      <polygon class="cls-8" points="87.71 460.93 91.19 468.07 115.67 468.07 118.05 460.93 87.71 460.93"/>
      <path class="cls-1" d="M132.38,124.34c9.81.43,19.61-1.69,27.68-6.97-8.95,2.18-18.67,1.75-27.68-.73v7.71Z"/>
      <path class="cls-2" d="M105,33.32c-6.59,9.17-8.67,27.88-6.16,43.96s12.24,32.56,27.21,38.99c14.97,6.43,33.55,6.56,46.94-2.88,13.2-9.31,18.49-15.15,20.56-30.06,2.92-21.01,5.77-40.09-16.26-58.53-27.18-22.75-56.97-12.79-72.29,8.52Z"/>
      <path class="cls-21" d="M101.44,69.75s5.58-39.08,43.06-42.95l1.74-8.92,2.95,9.82s32-1.3,44.2,41.16l2.95-2.54s5.12-56.65-47.97-57.87c0,0-55.71-4.58-51.23,57.84l4.3,3.46Z"/>
      <path class="cls-21" d="M135.79,80.98c-15.66,9.54-21.9-3.68-21.9-3.68h0c6.41,3.24,13.62,4.56,20.77,3.8l1.13-.12Z"/>
      <path class="cls-21" d="M181.62,76.98c-11.27,14.47-21.78,4.32-21.78,4.32h0c7.14.76,14.36-.56,20.76-3.81l1.02-.51Z"/>
      <path class="cls-21" d="M136.5,55.52c-13.48-1.7-17.61,4.66-17.61,4.66h0c5-2.26,10.79-3.84,16.67-4.54l.93-.11Z"/>
      <path class="cls-21" d="M174.3,60.76c-7.73-8.02-17.18-5.83-17.18-5.83h0c5.84,1.02,11.54,2.9,16.41,5.43l.77.4Z"/>
      <path class="cls-1" d="M149.24,90.98c-.33.55-.89.93-1.49,1.16s-1.24.3-1.88.34c-.26.02-.54.02-.74-.14-.92-.72-.52-3.23-.13-4.13.42-.96,1.26-1.86,2.23-2.27,2.83-1.22,2.95,3.48,2,5.04Z"/>
      <path class="cls-1" d="M92.65,78.72s5.91-1.83,7.36,4.59c0,0-.78,5.08-5.02.73,0,0-1.23-2.01,2.01-2.23,0,0,.45-1.82-4.35-3.09Z"/>
      <path class="cls-1" d="M198.68,78.51s-5.91-1.83-7.36,4.59c0,0,.78,5.08,5.02.73,0,0,1.23-2.01-2.01-2.23,0,0-.45-1.82,4.35-3.09Z"/>
      <polygon class="cls-19" points="91.19 468.07 67.28 494.84 67.28 507.92 77 512.69 91.19 511.73 102.5 500.46 114.63 481.65 115.67 468.07 91.19 468.07"/>
      <polygon class="cls-24" points="72.32 489.19 77 496.62 93.67 492.91 115.67 468.07 114.63 481.65 102.5 500.46 91.19 511.73 77 512.69 67.28 507.92 67.28 494.84 72.32 489.19"/>
      <line class="cls-24" x1="75.27" y1="493.88" x2="67.28" y2="502.43"/>
      <line class="cls-24" x1="83.45" y1="495.19" x2="83.45" y2="512.26"/>
      <line class="cls-24" x1="97.17" y1="488.96" x2="103.99" y2="498.15"/>
      <line class="cls-24" x1="105.49" y1="479.56" x2="112.88" y2="484.35"/>
      <line class="cls-24" x1="91.47" y1="493.56" x2="95.06" y2="507.87"/>
      <polygon class="cls-8" points="201.6 460.62 198.11 467.76 173.64 467.76 171.26 460.62 201.6 460.62"/>
      <polygon class="cls-19" points="198.11 467.76 222.03 494.53 222.03 507.61 212.31 512.38 198.11 511.43 186.81 500.15 174.68 481.34 173.64 467.76 198.11 467.76"/>
      <polygon class="cls-24" points="216.98 488.88 212.31 496.32 195.63 492.6 173.64 467.76 174.68 481.34 186.81 500.15 198.11 511.43 212.31 512.38 222.03 507.61 222.03 494.53 216.98 488.88"/>
      <line class="cls-24" x1="214.03" y1="493.57" x2="222.03" y2="502.12"/>
      <line class="cls-24" x1="205.86" y1="494.88" x2="205.86" y2="511.95"/>
      <line class="cls-24" x1="192.14" y1="488.65" x2="185.32" y2="497.84"/>
      <line class="cls-24" x1="183.81" y1="479.25" x2="176.42" y2="484.04"/>
      <line class="cls-24" x1="197.83" y1="493.25" x2="194.24" y2="507.57"/>
      <path class="cls-16" d="M140.36,103.36s3.68-2.71,5.65.12c0,0,7.42-4.17,8.06.75,0,0-8.21,5.19-13.71-.87Z"/>
      <polyline class="cls-22" points="165.64 222.55 169.88 216.22 160.06 222.73"/>
      <polygon class="cls-8" points="112.88 228.24 105.6 365.68 120.07 227.8 112.88 228.24"/>
      <polygon class="cls-8" points="155.97 226.7 162.24 296.91 162.24 226.7 155.97 226.7"/>
      <polygon class="cls-8" points="179.17 225.99 183.81 385.9 173.39 226.17 179.17 225.99"/>
      <polygon class="cls-22" points="116.29 224.12 109.14 216.22 111.97 224.12 116.29 224.12"/>
      <path class="cls-5" d="M97.14,66.28s-1.74-54.95,57.25-53.33c0,0,41.9,14.49,41.95,53.36,0,0,3.18-6.17-5.23-31.65-1.32-3.98-2.89-7.88-4.58-11.72-1.99-4.52-4.53-13.15,2.02-18.16,0,0-42.25-13.67-69.92,5.21,0,0-26.34,17.12-21.48,56.29Z"/>
      <path class="cls-4" d="M186.52,22.94c-.79-1.79-1.65-4.23-2.02-6.83l-11.11-4.28,13.4,11.76c-.09-.21-.18-.43-.28-.65Z"/>
      <polygon class="cls-4" points="149.75 164.04 157.11 170.73 170.94 170.73 173.39 164.04 167.37 161.36 149.75 164.04"/>
      <polygon class="cls-19" points="149.75 164.04 149.75 176.53 156.89 181.89 171.16 181.89 174.73 174.53 173.39 164.04 170.94 170.73 157.11 170.73 149.75 164.04"/>
      <polygon class="cls-19" points="149.75 164.04 137.7 167.16 141.27 177.65 149.75 176.53 149.75 164.04"/>
      <polygon class="cls-4" points="137.7 167.16 132.79 177.65 129.67 325.33 148.85 324.43 141.27 177.65 137.7 167.16"/>
      <polygon class="cls-19" points="137.7 167.16 132.57 168.5 126.77 180.55 123.2 307.26 137.7 307.26 139.91 182.06 141.27 177.65 137.7 167.16"/>
      <polygon class="cls-7" points="200.36 337.25 181.97 341.53 186.79 376.59 205.3 373.84 200.36 337.25"/>
      <polygon class="cls-20" points="189.05 342.9 187.66 337.29 186.36 337.61 189.05 342.9"/>
      <polygon class="cls-20" points="193.43 341.89 193.06 337.25 191.59 337.37 193.43 341.89"/>
      <polygon class="cls-20" points="196.47 335.46 197.49 335.46 198.49 340.09 196.47 335.46"/>
      <polygon class="cls-20" points="183.81 338.83 182.45 338.83 183.81 342.9 183.81 338.83"/>
      <polygon class="cls-20" points="191.59 374.97 191.59 379.28 192.51 379.28 191.59 374.97"/>
      <polygon class="cls-20" points="197.48 373.22 197.48 376.59 198.49 376.59 197.48 373.22"/>
      <polygon class="cls-20" points="201.86 373.22 201.86 377.13 203.21 377.13 201.86 373.22"/>
      <polyline class="cls-20" points="180.15 344.63 184.62 344.89 180.15 346.12 180.15 345.37"/>
      <polygon class="cls-20" points="182.39 349.35 182.81 351.24 186.36 350.3 182.39 349.35"/>
      <polygon class="cls-20" points="181.83 355.52 181.92 356.92 186.9 355.52 181.83 355.52"/>
      <polygon class="cls-20" points="183.82 365.92 183.91 367.31 188.89 365.92 183.82 365.92"/>
      <polygon class="cls-20" points="183.82 372.52 183.91 373.91 188.89 372.52 183.82 372.52"/>
      <polygon class="cls-20" points="183.13 360.68 183.81 362.16 186.9 362.16 183.13 360.68"/>
      <polygon class="cls-10" points="125.09 239.98 109.14 243.54 105.6 266.03 124.32 267.44 125.09 239.98"/>
      <path class="cls-15" d="M141.04,419.36l-1.78-23.9-30.12-1.08-3.53,22.36c11.76,1.57,23.59,2.44,35.43,2.62Z"/>
      <polygon class="cls-12" points="110.33 266.38 115.45 266.77 118.1 241.54 111.57 243 110.33 266.38"/>
      <polygon class="cls-20" points="118.22 398.48 118.48 392.7 117.13 392.64 118.22 398.48"/>
      <polygon class="cls-20" points="122.71 398.75 123.67 394.19 122.22 393.89 122.71 398.75"/>
      <polygon class="cls-20" points="127.44 393.45 128.42 393.74 128.06 398.46 127.44 393.45"/>
      <polygon class="cls-20" points="132.15 398.21 133.11 393.65 131.66 393.34 132.15 398.21"/>
      <polygon class="cls-20" points="136.89 392.91 137.87 393.2 137.51 397.92 136.89 392.91"/>
      <polygon class="cls-20" points="114.35 393.09 113.04 392.7 113.19 396.99 114.35 393.09"/>
      <polygon class="cls-20" points="136.49 407.09 142.2 406.15 141.98 404.82 136.49 407.09"/>
      <polygon class="cls-20" points="137.15 411.54 141.81 411.54 141.81 410.06 137.15 411.54"/>
      <polygon class="cls-20" points="143.32 415.07 143.24 416.09 138.54 416.72 143.32 415.07"/>
      <polygon class="cls-20" points="140.96 402.19 141.07 400.83 136.91 401.87 140.96 402.19"/>
      <polygon class="cls-20" points="110.84 256.48 105.09 255.87 104.95 257.21 110.84 256.48"/>
      <polygon class="cls-20" points="111.39 252.02 106.9 250.78 106.51 252.21 111.39 252.02"/>
      <polygon class="cls-20" points="106.39 246.97 106.74 246.01 111.43 246.65 106.39 246.97"/>
      <polygon class="cls-20" points="105.23 260.02 104.76 261.3 109.05 261.41 105.23 260.02"/>
      <polygon class="cls-20" points="118.2 264.1 117.43 269.83 118.76 270.01 118.2 264.1"/>
      <polygon class="cls-20" points="113.76 263.42 112.39 267.88 113.81 268.31 113.76 263.42"/>
      <polygon class="cls-20" points="108.57 268.28 107.62 267.91 108.4 263.23 108.57 268.28"/>
      <polygon class="cls-20" points="121.58 269.81 122.85 270.31 123.08 266.03 121.58 269.81"/>
      <polygon class="cls-20" points="117.64 245.05 115.98 239.51 114.69 239.89 117.64 245.05"/>
      <polygon class="cls-20" points="121.97 243.83 121.37 239.21 119.9 239.4 121.97 243.83"/>
      <polygon class="cls-20" points="112.21 241.24 110.84 241.3 112.4 245.3 112.21 241.24"/>
      <polygon class="cls-20" points="110.58 409.51 104.92 408.31 104.64 409.63 110.58 409.51"/>
      <polygon class="cls-20" points="104.63 412.46 104.04 413.68 108.29 414.23 104.63 412.46"/>
      <polyline class="cls-20" points="106.19 398.37 110.41 399.88 105.77 399.79 105.98 399.08"/>
      <polygon class="cls-20" points="107 402.77 106.86 404.7 110.53 404.8 107 402.77"/>
    </g>
  </g>
</svg>