<?xml version="1.0" encoding="UTF-8"?>
<svg id="_레이어_2" data-name="레이어 2" xmlns="http://www.w3.org/2000/svg" viewBox="0 0 292.34 511.24">
  <defs>
    <style>
      .cls-1 {
        fill: #f9aa6d;
      }

      .cls-1, .cls-2, .cls-3, .cls-4, .cls-5, .cls-6, .cls-7, .cls-8, .cls-9, .cls-10, .cls-11, .cls-12, .cls-13, .cls-14, .cls-15 {
        stroke-width: 0px;
      }

      .cls-2 {
        fill: #deddda;
      }

      .cls-3 {
        fill: #dfe1dd;
      }

      .cls-4 {
        fill: #c2895d;
      }

      .cls-5 {
        fill: #eaeaea;
      }

      .cls-6 {
        fill: #eaece9;
      }

      .cls-7 {
        fill: #d7dcd8;
      }

      .cls-8 {
        fill: #794632;
      }

      .cls-9 {
        fill: #5795a7;
      }

      .cls-10 {
        fill: #5d9fae;
      }

      .cls-11 {
        fill: #dfdfdd;
      }

      .cls-12 {
        fill: #b7784e;
      }

      .cls-13 {
        fill: #454748;
      }

      .cls-14 {
        fill: #517840;
      }

      .cls-15 {
        fill: #5f954a;
      }
    </style>
  </defs>
  <g id="Layer_1" data-name="Layer 1">
    <g>
      <polygon class="cls-6" points="87.71 459.63 83.45 454.59 85.58 436.44 122.07 441.68 122.07 456.61 118.05 459.63 87.71 459.63"/>
      <polygon class="cls-6" points="201.48 459.54 205.74 454.5 203.61 436.34 167.12 441.59 167.12 456.51 171.14 459.54 201.48 459.54"/>
      <polygon class="cls-1" points="160.44 134.48 146.41 144.38 132.38 134.48 132.38 106.5 160.44 106.5 160.44 134.48"/>
      <polygon class="cls-7" points="205.11 447.36 203.74 435.73 167.25 440.97 167.25 455.13 205.11 447.36"/>
      <polygon class="cls-7" points="84.21 448.57 122.2 455.09 122.2 441.07 85.71 435.83 84.21 448.57"/>
      <polygon class="cls-1" points="251 270.91 257.16 294.89 263.11 294.89 262.6 281.44 279.85 298.62 284.31 295.47 267.65 278.47 288.86 292.73 292.34 287.6 271.67 274.37 290.26 281.44 292.34 275.75 274.2 269.14 288.08 272.1 287.48 266.74 266.76 257.68 251 270.91"/>
      <path class="cls-9" d="M179.46,125.7s35.29,2.16,91.21,132.52l-20.23,17.28s-47.17-35.33-68.41-77.74l-2.57-72.07Z"/>
      <path class="cls-11" d="M250.44,275.51s-3.63-2.72-9.33-7.55h0l25.23-19.63c1.43,3.22,2.86,6.5,4.32,9.9l-20.23,17.28Z"/>
      <polygon class="cls-1" points="41.35 270.84 35.18 293.89 29.23 293.89 29.74 281.36 12.49 298.55 8.03 295.4 24.69 278.39 3.48 292.66 0 287.53 20.67 274.3 2.08 281.36 0 275.68 18.14 269.07 4.26 272.03 4.86 266.67 25.58 257.61 41.35 270.84"/>
      <path class="cls-9" d="M112.88,125.63s-35.29,2.16-91.21,132.52l20.23,17.28s47.17-35.33,68.41-77.74l2.57-72.07Z"/>
      <path class="cls-11" d="M41.9,275.44s3.63-2.72,9.33-7.55h0l-25.23-19.63c-1.43,3.22-2.86,6.5-4.32,9.9l20.23,17.28Z"/>
      <path class="cls-15" d="M97.81,227.6l-49.47,205.21,8.67,2.41c56.87,15.81,116.84,16.9,174.26,3.17l9.85-2.36-45.59-211.16-97.72,2.72Z"/>
      <path class="cls-13" d="M107.94,90.2s-8.09-1.45-9.17,5c0,0-11.6.26-6.2,12.64,0,0-4.04,8.61,11.6,7.8,0,0,13.21,6.99,15.91-6.18l-12.13-19.25Z"/>
      <polygon class="cls-7" points="97.81 224.07 97.81 227.6 195.53 224.88 195.53 220.04 110.28 218.59 97.81 224.07"/>
      <polygon class="cls-15" points="95.32 202.67 91.13 216.28 97.81 224.07 165.64 221.92 171.84 224.07 195.53 220.04 202.54 213.37 198 202.67 95.32 202.67"/>
      <path class="cls-10" d="M112.88,125.63s-7.83,17.56-21.49,79.69c0,0,62.4,8.05,111.55-.02,0,0-8.44-39.81-23.48-79.6l-66.58-.07Z"/>
      <path class="cls-1" d="M100.33,68.95c.05-3.64-3.69-4.43-7.33-4.19-3.64.25-5.64,3.18-6.76,6.64-1.12,3.46-1.6,5.1-.11,8.42,3.35,7.48,11.25,12.71,19.47,12.88.09-1.38-5.27-23.75-5.27-23.75Z"/>
      <path class="cls-1" d="M193.17,68.95c-.05-3.64,3.69-4.43,7.33-4.19s5.64,3.18,6.76,6.64,1.6,5.1.11,8.42c-3.35,7.48-11.25,12.71-19.47,12.88-.09-1.38,5.27-23.75,5.27-23.75Z"/>
      <polygon class="cls-7" points="87.71 459.63 91.19 466.75 115.67 466.75 118.05 459.63 87.71 459.63"/>
      <path class="cls-13" d="M148.36,8.42s-55.71-4.57-51.23,57.67l.74.59c.12,3.5.43,7,.96,10.38,2.57,16.45,12.24,32.47,27.21,38.88,14.97,6.41,33.55,6.54,46.94-2.88,13.2-9.28,18.49-15.11,20.56-29.98.77-5.51,1.52-10.88,1.83-16.15l.95-.82s-6.44-54.33-47.97-57.7Z"/>
      <polygon class="cls-4" points="91.19 466.75 67.28 493.44 67.28 506.49 77 511.24 91.19 510.29 102.5 499.05 114.63 480.29 115.67 466.75 91.19 466.75"/>
      <polygon class="cls-7" points="201.6 459.32 198.11 466.44 173.64 466.44 171.26 459.32 201.6 459.32"/>
      <polygon class="cls-4" points="198.11 466.44 222.03 493.14 222.03 506.18 212.31 510.93 198.11 509.98 186.81 498.74 174.68 479.98 173.64 466.44 198.11 466.44"/>
      <polyline class="cls-14" points="165.64 221.92 169.88 215.6 160.06 222.1"/>
      <polygon class="cls-14" points="116.29 223.49 109.14 215.6 111.97 223.49 116.29 223.49"/>
      <path class="cls-5" d="M97.14,66.1s-.75,41.94,58.23,43.56c0,0,36.67-3.16,40.96-43.53,0,0,3.18-6.16-5.23-31.56-1.32-3.97-2.89-7.86-4.58-11.69-1.99-4.51-4.53-13.11,2.02-18.11,0,0-42.25-13.63-69.92,5.2,0,0-26.34,17.07-21.48,56.13Z"/>
      <path class="cls-3" d="M186.52,22.88c-.79-1.79-1.65-4.22-2.02-6.81l-11.11-4.27,13.4,11.72c-.09-.21-.18-.43-.28-.64Z"/>
      <path class="cls-2" d="M112.88,125.63l66.58.07s-32.62-14.14-66.58-.07Z"/>
      <polygon class="cls-8" points="112.88 125.63 112.2 127.31 180.06 127.31 179.46 125.7 112.88 125.63"/>
      <polygon class="cls-14" points="124.22 226.87 115.67 390.96 132.38 226.87 124.22 226.87"/>
      <polygon class="cls-14" points="180.06 224.88 205.74 336.83 185.51 225.35 180.06 224.88"/>
      <polygon class="cls-14" points="105.6 227.6 87.71 333.11 109.14 227.6 105.6 227.6"/>
      <path class="cls-12" d="M67.28,500.47l28.12-30.78,20.27-2.95-1.04,13.54-12.13,18.76-11.3,11.24-14.2.95-9.72-4.75s0-12.03,0-6.02Z"/>
      <path class="cls-12" d="M222.29,500.47l-28.12-30.78-20.27-2.95,1.04,13.54,12.13,18.76,11.3,11.24,14.2.95,9.72-4.75s0-12.03,0-6.02Z"/>
    </g>
  </g>
</svg>