<?xml version="1.0" encoding="UTF-8"?>
<svg id="_레이어_2" data-name="레이어 2" xmlns="http://www.w3.org/2000/svg" xmlns:xlink="http://www.w3.org/1999/xlink" viewBox="0 0 441.18 648.39">
  <defs>
    <style>
      .cls-1 {
        fill: #deddda;
      }

      .cls-1, .cls-2, .cls-3, .cls-4, .cls-5, .cls-6, .cls-7, .cls-8, .cls-9, .cls-10, .cls-11, .cls-12, .cls-13, .cls-14, .cls-15, .cls-16, .cls-17, .cls-18, .cls-19, .cls-20, .cls-21, .cls-22 {
        stroke-width: 0px;
      }

      .cls-2 {
        fill: #f89e3a;
      }

      .cls-3 {
        fill: #488d9d;
      }

      .cls-4 {
        fill: #dfe1dd;
      }

      .cls-23 {
        clip-path: url(#clippath);
      }

      .cls-5 {
        fill: none;
      }

      .cls-6 {
        fill: #c2895d;
      }

      .cls-7 {
        fill: #fce7b5;
      }

      .cls-8 {
        fill: #eaeaea;
      }

      .cls-9 {
        fill: #f89c38;
      }

      .cls-10 {
        fill: #eaece9;
      }

      .cls-11 {
        fill: #ffe1a4;
      }

      .cls-12 {
        fill: #d7dcd8;
      }

      .cls-13 {
        fill: #75adbd;
      }

      .cls-14 {
        fill: #794632;
      }

      .cls-15 {
        fill: #5795a7;
      }

      .cls-24 {
        clip-path: url(#clippath-1);
      }

      .cls-25 {
        clip-path: url(#clippath-2);
      }

      .cls-16 {
        fill: #f5863b;
      }

      .cls-17 {
        fill: #5d9fae;
      }

      .cls-18 {
        fill: #dfdfdd;
      }

      .cls-19 {
        fill: #b7784e;
      }

      .cls-20 {
        fill: #474748;
      }

      .cls-21 {
        fill: #517840;
      }

      .cls-22 {
        fill: #5f954a;
      }
    </style>
    <clipPath id="clippath">
      <path class="cls-5" d="M256.91,171.4s89.15,128.65,93.75,240.85l-99.08-211.79,5.33-29.06Z"/>
    </clipPath>
    <clipPath id="clippath-1">
      <path class="cls-5" d="M162.35,171.4s-89.15,128.65-93.75,240.85l99.08-211.79-5.33-29.06Z"/>
    </clipPath>
    <clipPath id="clippath-2">
      <path class="cls-5" d="M427.59,533.12s-13.42-.21-21.42-1.05c-4.83-.77-9.6-1.92-14.18-3.64-2.94-1.35-5.74-2.94-8.38-4.81-1.53-1.31-2.97-2.73-4.3-4.25-1.37-1.98-2.55-4.07-3.58-6.24l5.71,1.83-7.05-5.27c-.06-.16-.12-.31-.17-.47l5.38-.9-7.19-4.4c-.02-.07-.05-.14-.07-.2-1.59-4.7-3.34-9.33-5.41-13.84-2.05-4.47-4.83-8.47-8.05-12.19-1.34-1.55-2.83-2.95-4.42-4.24-2.54-2.05-5.13-4.04-7.89-5.77-7.5-4.71-15.69-8.5-23.75-12.14-9.3-4.2-18.76-8.08-28.38-11.48-9.65-3.41-29.4-8.8-29.4-8.8l-11.47,1.5-6.84,8.89,1.5,11.47,8.89,6.84s30.63,8.83,45.34,14.94c5.64,2.43,11.21,5.01,16.7,7.76,5.08,2.55,10.24,5.12,14.9,8.4,1.3,1.11,2.53,2.29,3.66,3.58,1.35,2,2.5,4.12,3.51,6.31,1.94,4.99,3.43,10.14,5.35,15.13,1.48,3.84,3.04,7.71,5.07,11.29,2.05,3.62,4.65,7.02,7.47,10.06,2.84,3.07,6.22,5.67,9.63,8.07,2.5,1.77,5.18,3.28,7.96,4.57,7.16,3.31,14.45,5.67,22.25,6.84,9.52,1.42,19,1.89,28.61,2,3.79.04,13.6-9.15,13.6-9.15l-3.3-16.65-10.3-3.97Z"/>
    </clipPath>
  </defs>
  <g id="Layer_1" data-name="Layer 1">
    <g>
      <polyline class="cls-6" points="308.86 604.23 336.69 621.74 333.37 632.58 325.15 633.33 323.46 639.1 315.25 645.16 299.75 645.16 293.36 648.39 281.51 646.37 273.3 638.7 263.27 601.14"/>
      <polygon class="cls-19" points="263.27 601.14 273.3 638.7 281.51 646.37 293.36 648.39 299.75 645.16 315.25 645.16 323.46 639.1 325.15 633.33 333.37 632.58 334.89 627.62 297.83 603.48 263.27 601.14"/>
      <polyline class="cls-9" points="415.51 418.31 419.26 444.34 409.09 457.09 396.77 453.91 387.67 466.13 367.33 466.13 358.22 457.63 348.05 461.88 336.27 451.25 337.34 430.53 351.8 414.59"/>
      <polyline class="cls-9" points="3.75 418.31 0 444.34 10.17 457.09 22.49 453.91 31.59 466.13 51.93 466.13 61.04 457.63 71.21 461.88 82.99 451.25 81.92 430.53 67.46 414.59"/>
      <polyline class="cls-6" points="114.73 604.23 86.9 621.74 90.22 632.58 98.44 633.33 100.13 639.1 108.34 645.16 123.84 645.16 130.23 648.39 142.08 646.37 150.29 638.7 160.32 601.14"/>
      <polygon class="cls-19" points="160.32 601.14 150.29 638.7 142.08 646.37 130.23 648.39 123.84 645.16 108.34 645.16 100.13 639.1 98.44 633.33 90.22 632.58 88.7 627.62 125.76 603.48 160.32 601.14"/>
      <polygon class="cls-10" points="108.4 596.25 100.67 590.6 104.54 570.26 170.74 576.14 170.74 592.86 163.44 596.25 108.4 596.25"/>
      <polygon class="cls-10" points="314.78 596.14 322.51 590.5 318.65 570.16 252.45 576.03 252.45 592.75 259.75 596.14 314.78 596.14"/>
      <g>
        <path class="cls-12" d="M101.94,585.08c18.3-.57,48.46-1.47,68.99-1.97v-6.86l-66.2-5.88-2.79,14.71Z"/>
        <polygon class="cls-12" points="321.72 585.37 318.85 570.26 252.65 576.14 252.65 583.89 321.72 585.37"/>
      </g>
      <polygon class="cls-12" points="108.4 596.25 114.73 604.23 159.12 604.23 163.44 596.25 108.4 596.25"/>
      <polygon class="cls-12" points="314.99 595.9 308.67 603.88 264.28 603.88 259.96 595.9 314.99 595.9"/>
      <path class="cls-15" d="M291.3,159.05s111.9,7.97,124.21,259.26l-63.71-3.72s-23.07-56.58-40.15-112.63l-53.6-128.22,33.25-14.69Z"/>
      <g class="cls-23">
        <path class="cls-3" d="M290.16,156.71s111.9,7.97,124.21,259.26l-63.71-3.72s-23.07-56.58-40.15-112.63l-53.6-128.22,33.25-14.69Z"/>
      </g>
      <path class="cls-18" d="M343.02,392.89l71.16,4.64c.53,6.95.98,14.09,1.34,21.44l-63.71-3.72s-3.5-8.58-8.78-22.37Z"/>
      <polygon class="cls-12" points="349.13 393.29 351.8 415.26 343.02 392.89 349.13 393.29"/>
      <path class="cls-15" d="M127.96,159.05S16.06,167.02,3.75,418.31l63.71-3.72s23.07-56.58,40.15-112.63l53.6-128.22-33.25-14.69Z"/>
      <g class="cls-24">
        <path class="cls-3" d="M129.1,156.71S17.2,164.68,4.88,415.97l63.71-3.72s23.07-56.58,40.15-112.63l53.6-128.22-33.25-14.69Z"/>
      </g>
      <polygon class="cls-16" points="119.97 66.54 86.7 73.19 99.07 78.48 87.69 85.72 110.46 89.03 119.97 66.54"/>
      <polygon class="cls-16" points="300.16 66.54 325.38 70.98 310.71 76.62 318.6 89.03 292.94 85.72 288.7 66.54 300.16 66.54"/>
      <polygon class="cls-2" points="179.42 23.92 155.59 12.3 160.05 19.89 153.85 20.52 162.53 28.33 179.42 23.92"/>
      <path class="cls-2" d="M312.43,28.51c-.6-1.08-1.02-1.69-1.02-1.69-.18-.16-.5-.27-.91-.33l-30.4-11.04-27.99,23.94,32.45,33.79,9.02,5.29c15.67-4.78,33.29-26.03,33.29-26.03l-14.45-23.94Z"/>
      <path class="cls-2" d="M153.85,47.38l-30.95-35.08-28.11,17.04s-.26.31-.68.88l-13.5,17.51s16.47,28.64,31.69,33.38l9.06-5.24c.11-1.18.18-2.33.24-3.46l32.25-25.03Z"/>
      <path class="cls-2" d="M109.41,82.33s12.37-61.51,78.4-66.56c0,0,101.58-8.94,105.23,66.56l15.61,14.38-5.5,46.32-38.29,23.62-89.42,10.09-86.21-30.95,5.04-41.96,15.15-21.49Z"/>
      <path class="cls-20" d="M187.81,15.78c-6.58.5-12.61,1.57-18.16,3.08l4.41,6.32,27.84-2.75,28.57,2.75,4.2-5.57c-24.26-5.82-46.85-3.83-46.85-3.83Z"/>
      <g>
        <path class="cls-17" d="M118.36,162.78s19.77,30.98-15.45,135.19c0,0,82.44-.9,209.13-8.7,0,0-10.9-52.78-22.7-126.49h-82.55s-88.43,0-88.43,0Z"/>
        <path class="cls-13" d="M275.46,244.05l14.41,55.83c20.59-.95,4.56-8.78,24.24-10.88,0,0-3.34-50.92-24.77-126.22H118.36s-13.95,93.88-15.45,135.19c0,0,9.75.82,26.33,1.85l8.15-37.5,2.73,38.15c40.57,2.3,69,2.46,137.92-.09l-2.57-56.32Z"/>
      </g>
      <g>
        <path class="cls-22" d="M108.13,309.59L24.66,568.82c116.35,19.74,239.04,21.1,356.49,3.96l-73.11-266.58-199.91,3.39Z"/>
        <polygon class="cls-12" points="108.13 305.19 108.13 309.59 308.04 306.2 308.04 300.16 133.64 298.35 108.13 305.19"/>
        <polygon class="cls-22" points="103.04 278.46 94.48 295.46 108.13 305.19 246.89 302.51 259.58 305.19 308.04 300.16 322.38 291.83 313.09 278.46 103.04 278.46"/>
        <polyline class="cls-21" points="246.89 302.51 255.58 294.62 235.47 302.73"/>
        <polygon class="cls-21" points="145.93 304.46 131.32 294.62 137.11 304.46 145.93 304.46"/>
      </g>
      <path class="cls-18" d="M76.24,392.89l-71.16,4.64c-.53,6.95-.98,14.09-1.34,21.44l63.71-3.72s3.5-8.58,8.78-22.37Z"/>
      <polygon class="cls-12" points="70.13 393.29 67.46 415.26 76.24 392.89 70.13 393.29"/>
      <polygon class="cls-7" points="293.04 82.33 339.01 94.38 316.03 108.36 343.96 123.78 315.29 134.86 329.13 146.43 289.33 162.78 198.93 165.8 118.36 162.78 73.32 146.43 87.16 134.86 58.49 123.78 86.42 108.36 63.43 94.38 109.41 82.33 293.04 82.33"/>
      <path class="cls-11" d="M109.41,82.33s158.03,65.34,183.63,0H109.41Z"/>
      <polygon class="cls-21" points="340.76 504.65 340.65 492.59 311.31 467.85 260.38 435.94 247.15 436.73 241.06 446.41 246.98 467.99 308.17 489.69 340.76 504.65"/>
      <path class="cls-1" d="M289.33,162.78H118.36s79.64-42.98,170.98,0Z"/>
      <polygon class="cls-14" points="118.36 162.78 117.48 166.82 290.31 166.82 289.33 162.78 118.36 162.78"/>
      <path class="cls-8" d="M276.36,38.37c-4.43-7.19-8.56-22,3.81-30.37,0,0-79.79-22.86-132.04,8.71,0,0-41.68,15.9-38.72,65.62,0,0,130.32,38.91,183.63,0,0,0,9.69-1.22-16.68-43.96Z"/>
      <path class="cls-4" d="M276.36,38.37c-1.49-3-3.12-7.08-3.81-11.42l-20.98-7.16,25.31,19.66c-.18-.36-.35-.72-.52-1.08Z"/>
      <polygon class="cls-21" points="123.61 309.93 71.85 520.19 138.62 309.08 123.61 309.93"/>
      <polygon class="cls-21" points="183.27 309.08 187.05 427.1 198.93 308.05 183.27 309.08"/>
      <polygon class="cls-21" points="263.27 308.05 308.65 557.94 283.59 306.79 263.27 308.05"/>
      <path class="cls-16" d="M427.59,533.12s-13.42-.21-21.42-1.05c-4.83-.77-9.6-1.92-14.18-3.64-2.94-1.35-5.74-2.94-8.38-4.81-1.53-1.31-2.97-2.73-4.3-4.25-1.37-1.98-2.55-4.07-3.58-6.24l5.71,1.83-7.05-5.27c-.06-.16-.12-.31-.17-.47l5.38-.9-7.19-4.4c-.02-.07-.05-.14-.07-.2-1.59-4.7-3.34-9.33-5.41-13.84-2.05-4.47-4.83-8.47-8.05-12.19-1.34-1.55-2.83-2.95-4.42-4.24-2.54-2.05-5.13-4.04-7.89-5.77-7.5-4.71-15.69-8.5-23.75-12.14-9.3-4.2-18.76-8.08-28.38-11.48-9.65-3.41-29.4-8.8-29.4-8.8l-11.47,1.5-6.84,8.89,1.5,11.47,8.89,6.84s30.63,8.83,45.34,14.94c5.64,2.43,11.21,5.01,16.7,7.76,5.08,2.55,10.24,5.12,14.9,8.4,1.3,1.11,2.53,2.29,3.66,3.58,1.35,2,2.5,4.12,3.51,6.31,1.94,4.99,3.43,10.14,5.35,15.13,1.48,3.84,3.04,7.71,5.07,11.29,2.05,3.62,4.65,7.02,7.47,10.06,2.84,3.07,6.22,5.67,9.63,8.07,2.5,1.77,5.18,3.28,7.96,4.57,7.16,3.31,14.45,5.67,22.25,6.84,9.52,1.42,19,1.89,28.61,2,3.79.04,13.6-9.15,13.6-9.15l-3.3-16.65-10.3-3.97Z"/>
      <g class="cls-25">
        <g>
          <polygon class="cls-20" points="427.22 515.15 419.18 570.65 452.65 565.66 456.59 524.07 427.22 515.15"/>
          <path class="cls-20" d="M394.36,511.32l-9.22,25.97,8.94,3.37s12.23-24.52,11.91-26.59c-.31-2.06-11.64-2.75-11.64-2.75Z"/>
          <polygon class="cls-20" points="341.03 531.33 365.36 523.01 361.26 516.82 337.89 516.82 341.03 531.33"/>
          <polygon class="cls-20" points="361.26 464.84 351.63 490.68 354.15 494.44 370.61 479.89 361.26 464.84"/>
          <polygon class="cls-20" points="305.26 485.51 331.04 474.17 337.89 474.17 321.57 494.44 305.26 485.51"/>
          <polygon class="cls-20" points="326.5 429.53 315.11 459.38 321.57 460.36 337.89 442.77 326.5 429.53"/>
          <polygon class="cls-20" points="267.38 477.81 286.24 456.9 292.48 454.09 285.92 479.27 267.38 477.81"/>
          <polygon class="cls-20" points="263.78 418.05 265.64 449.94 271.94 448.18 279.6 425.45 263.78 418.05"/>
        </g>
      </g>
    </g>
  </g>
</svg>