<?xml version="1.0" encoding="UTF-8"?>
<svg id="_레이어_2" data-name="레이어 2" xmlns="http://www.w3.org/2000/svg" xmlns:xlink="http://www.w3.org/1999/xlink" viewBox="0 0 441.18 650.47">
  <defs>
    <style>
      .cls-1 {
        fill: #deddda;
      }

      .cls-1, .cls-2, .cls-3, .cls-4, .cls-5, .cls-6, .cls-7, .cls-8, .cls-9, .cls-10, .cls-11, .cls-12, .cls-13, .cls-14, .cls-15, .cls-16, .cls-17, .cls-18, .cls-19, .cls-20, .cls-21, .cls-22, .cls-23, .cls-24, .cls-25, .cls-26, .cls-27 {
        stroke-width: 0px;
      }

      .cls-2 {
        fill: #f89e3a;
      }

      .cls-3 {
        fill: #488d9d;
      }

      .cls-4 {
        fill: #dfe1dd;
      }

      .cls-28 {
        clip-path: url(#clippath);
      }

      .cls-5, .cls-29 {
        fill: none;
      }

      .cls-6 {
        fill: #fce7b5;
      }

      .cls-7 {
        fill: #eaeaea;
      }

      .cls-8 {
        fill: #f89c38;
      }

      .cls-9 {
        fill: #eaece9;
      }

      .cls-10 {
        fill: #dfaa25;
      }

      .cls-11 {
        fill: #d7dcd8;
      }

      .cls-12 {
        fill: #75adbd;
      }

      .cls-13 {
        fill: #8c3e22;
      }

      .cls-29 {
        stroke: #c2895d;
        stroke-miterlimit: 10;
        stroke-width: 4px;
      }

      .cls-14 {
        fill: #794632;
      }

      .cls-15 {
        fill: #782f18;
      }

      .cls-16 {
        fill: #5795a7;
      }

      .cls-30 {
        clip-path: url(#clippath-1);
      }

      .cls-31 {
        clip-path: url(#clippath-4);
      }

      .cls-32 {
        clip-path: url(#clippath-3);
      }

      .cls-33 {
        clip-path: url(#clippath-2);
      }

      .cls-17 {
        fill: #e5e5e4;
      }

      .cls-18 {
        fill: #cb6f28;
      }

      .cls-19 {
        fill: #f5863b;
      }

      .cls-20 {
        fill: #fff8ea;
      }

      .cls-21 {
        fill: #5d9fae;
      }

      .cls-22 {
        fill: #dfdfdd;
      }

      .cls-23 {
        fill: #eceaeb;
      }

      .cls-24 {
        fill: #c6c5c5;
      }

      .cls-25 {
        fill: #474748;
      }

      .cls-26 {
        fill: #517840;
      }

      .cls-27 {
        fill: #5f954a;
      }
    </style>
    <clipPath id="clippath">
      <path class="cls-5" d="M256.91,171.4s89.15,128.65,93.75,240.85l-99.08-211.79,5.33-29.06Z"/>
    </clipPath>
    <clipPath id="clippath-1">
      <path class="cls-5" d="M162.35,171.4s-89.15,128.65-93.75,240.85l99.08-211.79-5.33-29.06Z"/>
    </clipPath>
    <clipPath id="clippath-2">
      <path class="cls-5" d="M427.59,533.12s-13.42-.21-21.42-1.05c-4.83-.77-9.6-1.92-14.18-3.64-2.94-1.35-5.74-2.94-8.38-4.81-1.53-1.31-2.97-2.73-4.3-4.25-1.37-1.98-2.55-4.07-3.58-6.24l5.71,1.83-7.05-5.27c-.06-.16-.12-.31-.17-.47l5.38-.9-7.19-4.4c-.02-.07-.05-.14-.07-.2-1.59-4.7-3.34-9.33-5.41-13.84-2.05-4.47-4.83-8.47-8.05-12.19-1.34-1.55-2.83-2.95-4.42-4.24-2.54-2.05-5.13-4.04-7.89-5.77-7.5-4.71-15.69-8.5-23.75-12.14-9.3-4.2-18.76-8.08-28.38-11.48-9.65-3.41-29.4-8.8-29.4-8.8l-11.47,1.5-6.84,8.89,1.5,11.47,8.89,6.84s30.63,8.83,45.34,14.94c5.64,2.43,11.21,5.01,16.7,7.76,5.08,2.55,10.24,5.12,14.9,8.4,1.3,1.11,2.53,2.29,3.66,3.58,1.35,2,2.5,4.12,3.51,6.31,1.94,4.99,3.43,10.14,5.35,15.13,1.48,3.84,3.04,7.71,5.07,11.29,2.05,3.62,4.65,7.02,7.47,10.06,2.84,3.07,6.22,5.67,9.63,8.07,2.5,1.77,5.18,3.28,7.96,4.57,7.16,3.31,14.45,5.67,22.25,6.84,9.52,1.42,19,1.89,28.61,2,3.79.04,13.6-9.15,13.6-9.15l-3.3-16.65-10.3-3.97Z"/>
    </clipPath>
    <clipPath id="clippath-3">
      <path class="cls-5" d="M291.3,159.05s111.9,7.97,124.21,259.26l3.75,26.03-10.17,12.75-12.31-3.19-9.1,12.22h-20.35s-9.1-8.5-9.1-8.5l-10.17,4.25-11.78-10.63,1.07-20.72,14.46-15.94s3.75-60.57-40.15-112.63l-53.6-128.22,33.25-14.69Z"/>
    </clipPath>
    <clipPath id="clippath-4">
      <path class="cls-5" d="M127.96,159.05S16.06,167.02,3.75,418.31l-3.75,26.03,10.17,12.75,12.31-3.19,9.1,12.22h20.35l9.1-8.5,10.17,4.25,11.78-10.63-1.07-20.72-14.46-15.94s-3.75-60.57,40.15-112.63l53.6-128.22-33.25-14.69Z"/>
    </clipPath>
  </defs>
  <g id="Layer_1" data-name="Layer 1">
    <g>
      <polyline class="cls-23" points="308.86 603.45 336.69 620.96 333.37 631.8 325.15 632.55 323.46 638.32 315.25 644.38 299.75 644.38 293.36 647.61 281.51 645.59 273.3 637.92 263.27 600.36"/>
      <polygon class="cls-29" points="317.35 623.98 325.15 632.55 323.46 638.32 315.25 644.38 299.75 644.38 297.91 629.39 317.35 623.98"/>
      <polyline class="cls-29" points="325.15 632.55 333.37 631.8 336.69 620.96 321.65 611.49 317.35 623.98"/>
      <polyline class="cls-29" points="297.91 629.39 268.15 623.2 273.3 637.92 281.51 645.59 293.36 647.61 299.75 644.38"/>
      <polyline class="cls-23" points="114.73 604.23 86.9 621.74 90.22 632.58 98.44 633.33 100.13 639.1 108.34 645.16 123.84 645.16 130.23 648.39 142.08 646.37 150.29 638.7 160.32 601.14"/>
      <polygon class="cls-9" points="108.4 596.25 100.67 590.6 104.54 570.26 170.74 576.14 170.74 592.86 163.44 596.25 108.4 596.25"/>
      <polygon class="cls-9" points="314.78 596.14 322.51 590.5 318.65 570.16 252.45 576.03 252.45 592.75 259.75 596.14 314.78 596.14"/>
      <g>
        <path class="cls-11" d="M101.94,585.08c18.3-.57,48.46-1.47,68.99-1.97v-6.86l-66.2-5.88-2.79,14.71Z"/>
        <polygon class="cls-11" points="321.72 585.37 318.85 570.26 252.65 576.14 252.65 583.89 321.72 585.37"/>
      </g>
      <polygon class="cls-11" points="108.4 596.25 114.73 604.23 159.12 604.23 163.44 596.25 108.4 596.25"/>
      <polygon class="cls-11" points="314.99 595.9 308.67 603.88 264.28 603.88 259.96 595.9 314.99 595.9"/>
      <path class="cls-16" d="M291.3,159.05s111.9,7.97,124.21,259.26l-63.71-3.72s-23.07-56.58-40.15-112.63l-53.6-128.22,33.25-14.69Z"/>
      <g class="cls-28">
        <path class="cls-3" d="M290.16,156.71s111.9,7.97,124.21,259.26l-63.71-3.72s-23.07-56.58-40.15-112.63l-53.6-128.22,33.25-14.69Z"/>
      </g>
      <path class="cls-22" d="M343.02,392.89l71.16,4.64c.53,6.95.98,14.09,1.34,21.44l-63.71-3.72s-3.5-8.58-8.78-22.37Z"/>
      <polygon class="cls-11" points="349.13 393.29 351.8 415.26 343.02 392.89 349.13 393.29"/>
      <path class="cls-16" d="M127.96,159.05S16.06,167.02,3.75,418.31l63.71-3.72s23.07-56.58,40.15-112.63l53.6-128.22-33.25-14.69Z"/>
      <g class="cls-30">
        <path class="cls-3" d="M129.1,156.71S17.2,164.68,4.88,415.97l63.71-3.72s23.07-56.58,40.15-112.63l53.6-128.22-33.25-14.69Z"/>
      </g>
      <path class="cls-19" d="M427.59,533.12s-13.42-.21-21.42-1.05c-4.83-.77-9.6-1.92-14.18-3.64-2.94-1.35-5.74-2.94-8.38-4.81-1.53-1.31-2.97-2.73-4.3-4.25-1.37-1.98-2.55-4.07-3.58-6.24l5.71,1.83-7.05-5.27c-.06-.16-.12-.31-.17-.47l5.38-.9-7.19-4.4c-.02-.07-.05-.14-.07-.2-1.59-4.7-3.34-9.33-5.41-13.84-2.05-4.47-4.83-8.47-8.05-12.19-1.34-1.55-2.83-2.95-4.42-4.24-2.54-2.05-5.13-4.04-7.89-5.77-7.5-4.71-15.69-8.5-23.75-12.14-9.3-4.2-18.76-8.08-28.38-11.48-9.65-3.41-29.4-8.8-29.4-8.8l-11.47,1.5-6.84,8.89,1.5,11.47,8.89,6.84s30.63,8.83,45.34,14.94c5.64,2.43,11.21,5.01,16.7,7.76,5.08,2.55,10.24,5.12,14.9,8.4,1.3,1.11,2.53,2.29,3.66,3.58,1.35,2,2.5,4.12,3.51,6.31,1.94,4.99,3.43,10.14,5.35,15.13,1.48,3.84,3.04,7.71,5.07,11.29,2.05,3.62,4.65,7.02,7.47,10.06,2.84,3.07,6.22,5.67,9.63,8.07,2.5,1.77,5.18,3.28,7.96,4.57,7.16,3.31,14.45,5.67,22.25,6.84,9.52,1.42,19,1.89,28.61,2,3.79.04,13.6-9.15,13.6-9.15l-3.3-16.65-10.3-3.97Z"/>
      <g class="cls-33">
        <g>
          <polygon class="cls-25" points="427.22 515.15 419.18 570.65 452.65 565.66 456.59 524.07 427.22 515.15"/>
          <path class="cls-25" d="M394.36,511.32l-9.22,25.97,8.94,3.37s12.23-24.52,11.91-26.59-11.64-2.75-11.64-2.75Z"/>
          <polygon class="cls-25" points="341.03 531.33 365.36 523.01 361.26 516.82 337.89 516.82 341.03 531.33"/>
          <polygon class="cls-25" points="361.26 464.84 351.63 490.68 354.15 494.44 370.61 479.89 361.26 464.84"/>
          <polygon class="cls-25" points="305.26 485.51 331.04 474.17 337.89 474.17 321.57 494.44 305.26 485.51"/>
          <polygon class="cls-25" points="326.5 429.53 315.11 459.38 321.57 460.36 337.89 442.77 326.5 429.53"/>
          <polygon class="cls-25" points="267.38 477.81 286.24 456.9 292.48 454.09 285.92 479.27 267.38 477.81"/>
          <polygon class="cls-25" points="263.78 418.05 265.64 449.94 271.94 448.18 279.6 425.45 263.78 418.05"/>
        </g>
      </g>
      <polygon class="cls-19" points="119.97 66.54 86.7 73.19 99.07 78.48 87.69 85.72 110.46 89.03 119.97 66.54"/>
      <polygon class="cls-19" points="300.16 66.54 325.38 70.98 310.71 76.62 318.6 89.03 292.94 85.72 288.7 66.54 300.16 66.54"/>
      <polygon class="cls-2" points="179.42 23.92 155.59 12.3 160.05 19.89 153.85 20.52 162.53 28.33 179.42 23.92"/>
      <path class="cls-2" d="M252.11,39.39l27.99-23.94,31.31,11.37s21.95,31.48-26.85,46.37l-32.45-33.79Z"/>
      <path class="cls-25" d="M284.56,73.19c-3.62-42.43,24.31-48.6,26.85-46.37l15.47,25.63s-17.63,21.25-33.29,26.03l-9.02-5.29Z"/>
      <path class="cls-2" d="M153.85,47.38l-30.95-35.08-28.11,17.04s-26.3,31.31,22.4,46.49l36.66-28.45Z"/>
      <path class="cls-25" d="M121.35,75.87c3.88-42.41-24.01-48.74-26.57-46.53l-14.18,18.39s16.47,28.64,31.69,33.38l9.06-5.24Z"/>
      <path class="cls-2" d="M109.41,82.33s12.37-61.51,78.4-66.56c0,0,101.58-8.94,105.23,66.56l15.61,14.38-5.5,46.32-38.29,23.62-89.42,10.09-86.21-30.95,5.04-41.96,15.15-21.49Z"/>
      <polygon class="cls-25" points="101.43 126.07 138.51 121.71 138.51 129.96 102.74 138.22 101.43 126.07"/>
      <polygon class="cls-25" points="121.77 153.58 143.79 136.61 147.91 140.28 134.84 157.02 121.77 153.58"/>
      <polygon class="cls-25" points="99.07 93.68 131.86 102.62 128.65 109.14 99.07 102.62 99.07 93.68"/>
      <polygon class="cls-25" points="302.73 125.12 265.65 120.76 265.65 129.02 301.42 137.27 302.73 125.12"/>
      <polygon class="cls-25" points="282.39 152.63 260.38 135.67 256.25 139.34 269.32 156.07 282.39 152.63"/>
      <polygon class="cls-25" points="305.09 92.74 272.3 101.68 275.51 108.19 305.09 101.68 305.09 92.74"/>
      <path class="cls-20" d="M220.89,109.74l41.5-24.01s0,34.1-41.5,24.01Z"/>
      <path class="cls-20" d="M178.54,112.05l-37.83-20.41s-6.88,28.89,37.83,20.41Z"/>
      <path class="cls-25" d="M241.64,109.14c5.78,0,10.47-4.69,10.47-10.47,0-2.2-.68-4.24-1.84-5.93l-18.06,10.45c1.69,3.51,5.27,5.95,9.43,5.95Z"/>
      <path class="cls-25" d="M170.52,107.72l-16.79-9.06c-.73,1.35-1.14,2.89-1.14,4.53,0,5.27,4.27,9.54,9.54,9.54,3.63,0,6.78-2.03,8.39-5.01Z"/>
      <polygon class="cls-19" points="220.37 91.62 234.59 70.98 244.9 76.94 224.5 93.68 220.37 91.62"/>
      <polygon class="cls-19" points="171.07 93.51 175.2 88.69 162.36 72.18 150.67 80.21 171.07 93.51"/>
      <polygon class="cls-25" points="189.9 20.78 198.42 90.59 205.8 90.59 213.38 20.31 189.9 20.78"/>
      <polygon class="cls-25" points="179.42 35.27 224.36 35.27 220.53 43.52 182.63 42.15 179.42 35.27"/>
      <polygon class="cls-25" points="186.66 59.32 217.12 59.32 214.87 66.54 188.5 66.54 186.66 59.32"/>
      <path class="cls-25" d="M187.81,15.78c-6.58.5-12.61,1.57-18.16,3.08l4.41,6.32,27.84-2.75,28.57,2.75,4.2-5.57c-24.26-5.82-46.85-3.83-46.85-3.83Z"/>
      <polygon class="cls-6" points="182.93 134.35 158.11 143.69 166.68 145.67 162.89 150.61 174.52 149.66 182.93 134.35"/>
      <polygon class="cls-6" points="220.65 168.66 240.93 151.59 238.46 160.03 244.63 159.14 238.11 168.82 220.65 168.66"/>
      <path class="cls-7" d="M109.41,82.33s5.37-28.04,39.57-46c32.02-16.82,70.69-14.62,101.18,4.82,18.68,11.91,38.78,27.45,42.88,41.18,0,0,9.69-1.22-16.68-43.96-4.43-7.19-8.56-22,3.81-30.37,0,0-79.79-22.86-132.04,8.71,0,0-41.68,15.9-38.72,65.62Z"/>
      <path class="cls-4" d="M276.36,38.37c-1.49-3-3.12-7.08-3.81-11.42l-20.98-7.16,25.31,19.66c-.18-.36-.35-.72-.52-1.08Z"/>
      <g>
        <path class="cls-21" d="M118.36,162.78s19.77,30.98-15.45,135.19c0,0,82.44-.9,209.13-8.7,0,0-10.9-52.78-22.7-126.49l-82.55,40.66-88.43-40.66Z"/>
        <path class="cls-12" d="M275.46,244.05l14.41,55.83c20.59-.95,4.56-8.78,24.24-10.88,0,0-3.34-50.92-24.77-126.22l-82.55,40.66-88.43-40.66s-13.95,93.88-15.45,135.19c0,0,9.75.82,26.33,1.85l8.15-37.5,2.73,38.15c40.57,2.3,69,2.46,137.92-.09l-2.57-56.32Z"/>
      </g>
      <g>
        <polygon class="cls-14" points="148.49 221.89 193.08 227.42 293.83 161 234.3 167.9 148.49 221.89"/>
        <polygon class="cls-14" points="225.75 193.26 181.16 198.8 108.92 161 153.85 166.09 225.75 193.26"/>
        <polygon class="cls-1" points="226.77 190.62 185.03 196.16 115.63 160.2 150.67 163.47 226.77 190.62"/>
        <polygon class="cls-23" points="149.87 218.3 191.61 223.83 286.61 160.2 223.29 170.91 149.87 218.3"/>
      </g>
      <g>
        <path class="cls-27" d="M108.13,309.59L24.66,568.82c116.35,19.74,239.04,21.1,356.49,3.96l-73.11-266.58-199.91,3.39Z"/>
        <polygon class="cls-11" points="108.13 305.19 108.13 309.59 308.04 306.2 308.04 300.16 133.64 298.35 108.13 305.19"/>
        <path class="cls-17" d="M123.85,309.59l-45.1,230.03h0c78.12,9.98,158.68,10.66,237.23,2l22.77-2.51-51.59-232.57-163.3,3.04Z"/>
        <polygon class="cls-27" points="103.04 278.46 94.48 295.46 108.13 305.19 246.89 302.51 259.58 305.19 308.04 300.16 322.38 291.83 313.09 278.46 103.04 278.46"/>
        <polyline class="cls-26" points="246.89 302.51 255.58 294.62 235.47 302.73"/>
        <polygon class="cls-11" points="138.97 309.59 124.07 480.7 153.67 309.04 138.97 309.59"/>
        <polygon class="cls-11" points="227.12 307.67 239.94 395.09 239.94 307.67 227.12 307.67"/>
        <polygon class="cls-11" points="274.58 306.79 284.07 505.88 262.76 307.01 274.58 306.79"/>
        <polygon class="cls-26" points="145.93 304.46 131.32 294.62 137.11 304.46 145.93 304.46"/>
        <polygon class="cls-10" points="317.93 445.31 280.31 450.64 290.18 494.29 328.04 490.87 317.93 445.31"/>
        <polygon class="cls-24" points="294.8 452.35 291.95 445.36 289.28 445.76 294.8 452.35"/>
        <polygon class="cls-24" points="303.76 451.09 303 445.31 299.98 445.46 303.76 451.09"/>
        <polygon class="cls-24" points="309.97 443.09 312.06 443.09 314.1 448.85 309.97 443.09"/>
        <polygon class="cls-24" points="284.07 447.28 281.28 447.28 284.07 452.35 284.07 447.28"/>
        <polygon class="cls-24" points="299.98 492.27 299.98 497.64 301.87 497.64 299.98 492.27"/>
        <polygon class="cls-24" points="312.03 490.09 312.03 494.29 314.1 494.29 312.03 490.09"/>
        <polygon class="cls-24" points="321 490.09 321 494.96 323.76 494.96 321 490.09"/>
        <polyline class="cls-24" points="276.59 454.5 285.73 454.82 276.59 456.35 276.59 455.42"/>
        <polygon class="cls-24" points="281.16 460.38 282.01 462.73 289.28 461.55 281.16 460.38"/>
        <polygon class="cls-24" points="280.02 468.06 280.2 469.8 290.38 468.06 280.02 468.06"/>
        <polygon class="cls-24" points="284.09 481 284.28 482.74 294.46 481 284.09 481"/>
        <polygon class="cls-24" points="284.09 489.22 284.28 490.96 294.46 489.22 284.09 489.22"/>
        <polygon class="cls-24" points="282.67 474.48 284.07 476.32 290.38 476.32 282.67 474.48"/>
        <polygon class="cls-13" points="163.95 324.2 131.32 328.64 124.07 356.63 162.37 358.4 163.95 324.2"/>
        <path class="cls-18" d="M196.57,547.54l-3.64-29.75-61.62-1.34-7.22,27.84c24.06,1.95,48.26,3.04,72.48,3.26Z"/>
        <polygon class="cls-15" points="133.75 357.08 144.23 357.56 149.64 326.15 136.29 327.96 133.75 357.08"/>
        <polygon class="cls-24" points="149.88 521.54 150.42 514.34 147.66 514.27 149.88 521.54"/>
        <polygon class="cls-24" points="159.07 521.88 161.03 516.21 158.06 515.83 159.07 521.88"/>
        <polygon class="cls-24" points="168.75 515.28 170.75 515.64 170.03 521.52 168.75 515.28"/>
        <polygon class="cls-24" points="178.39 521.21 180.36 515.53 177.39 515.15 178.39 521.21"/>
        <polygon class="cls-24" points="188.07 514.6 190.08 514.96 189.35 520.85 188.07 514.6"/>
        <polygon class="cls-24" points="141.96 514.83 139.28 514.35 139.6 519.69 141.96 514.83"/>
        <polygon class="cls-24" points="187.27 532.27 198.94 531.1 198.5 529.44 187.27 532.27"/>
        <polygon class="cls-24" points="188.62 537.81 198.15 537.8 198.15 535.96 188.62 537.81"/>
        <polygon class="cls-24" points="196.41 526.16 196.63 524.47 188.11 525.76 196.41 526.16"/>
        <polygon class="cls-24" points="134.8 344.75 123.03 343.99 122.73 345.66 134.8 344.75"/>
        <polygon class="cls-24" points="135.92 339.19 126.73 337.65 125.92 339.43 135.92 339.19"/>
        <polygon class="cls-24" points="125.68 332.91 126.4 331.71 136 332.51 125.68 332.91"/>
        <polygon class="cls-24" points="123.31 349.15 122.35 350.75 131.13 350.89 123.31 349.15"/>
        <polygon class="cls-24" points="149.85 354.23 148.26 361.37 151 361.59 149.85 354.23"/>
        <polygon class="cls-24" points="140.76 353.39 137.97 358.94 140.87 359.48 140.76 353.39"/>
        <polygon class="cls-24" points="130.15 359.44 128.2 358.97 129.79 353.15 130.15 359.44"/>
        <polygon class="cls-24" points="156.76 361.34 159.36 361.97 159.83 356.64 156.76 361.34"/>
        <polygon class="cls-24" points="148.7 330.52 145.31 323.62 142.66 324.1 148.7 330.52"/>
        <polygon class="cls-24" points="157.55 329 156.34 323.24 153.33 323.48 157.55 329"/>
        <polygon class="cls-24" points="137.58 325.77 134.8 325.85 137.99 330.83 137.58 325.77"/>
        <polygon class="cls-24" points="134.26 535.28 122.68 533.79 122.11 535.43 134.26 535.28"/>
        <polygon class="cls-24" points="122.09 538.94 120.87 540.47 129.58 541.15 122.09 538.94"/>
        <polyline class="cls-24" points="125.28 521.4 133.9 523.28 124.42 523.17 124.85 522.29"/>
        <polygon class="cls-24" points="126.93 526.88 126.65 529.29 134.16 529.41 126.93 526.88"/>
      </g>
      <path class="cls-6" d="M343.96,123.78l-27.93-15.42,22.99-13.98-45.97-12.05,13.54,28.33-18.72,37.83-52.59,19.52c24.76-47.46-86.9-52.74-68.1,0l-47.2-16.44-20.9-39.99,10.33-29.27-45.97,12.05,22.99,13.98-27.93,15.42,28.67,11.08-13.84,11.57,59.92,24.69,67.98,14.55,75.44-14.55,52.47-24.69-13.84-11.57,28.67-11.08Z"/>
      <path class="cls-19" d="M194.7,102.84c-1.59.99-2.57,2.69-3.4,4.37-5.21,10.57-6.55,22.71-5.78,34.47.05.82.16,1.74.8,2.27.51.42,1.22.48,1.89.51,9.6.48,19.22.7,28.83.68.18-8.06.09-16.13-.6-24.16-.47-5.45-1.03-16.14-6.25-19.51-1.92-1.24-12.65-.4-15.49,1.37Z"/>
      <path class="cls-25" d="M217.21,141.44l-.09-.05-31.59-1.57c.03.62.06,1.24.1,1.86.05.82.16,1.74.8,2.27.51.42,1.22.48,1.89.51,9.6.48,19.22.7,28.83.68.03-1.23.05-2.46.06-3.7Z"/>
      <polyline class="cls-8" points="415.51 418.31 419.26 444.34 409.09 457.09 396.77 453.91 387.67 466.13 367.33 466.13 358.22 457.63 348.05 461.88 336.27 451.25 337.34 430.53 351.8 414.59"/>
      <polyline class="cls-8" points="3.75 418.31 0 444.34 10.17 457.09 22.49 453.91 31.59 466.13 51.93 466.13 61.04 457.63 71.21 461.88 82.99 451.25 81.92 430.53 67.46 414.59"/>
      <polygon class="cls-25" points="197.9 143.46 197.9 151.48 177.95 149.53 179.33 152.97 220.37 159.05 225.84 155.38 203.21 151.25 202.94 143.46 197.9 143.46"/>
      <g>
        <polygon class="cls-4" points="213.45 225.84 227.87 237.04 254.96 237.04 259.77 225.84 247.97 221.37 213.45 225.84"/>
        <polygon class="cls-23" points="213.45 225.84 213.45 246.74 227.43 255.69 255.4 255.69 262.39 243.38 259.77 225.84 254.96 237.04 227.87 237.04 213.45 225.84"/>
        <polygon class="cls-23" points="213.45 225.84 189.85 231.07 196.84 248.6 213.45 246.74 213.45 225.84"/>
        <polygon class="cls-4" points="189.85 231.07 180.23 248.6 174.11 495.59 211.7 494.1 196.84 248.6 189.85 231.07"/>
        <polygon class="cls-23" points="189.85 231.07 179.8 233.3 168.43 253.45 161.44 465.37 189.85 465.37 194.17 255.98 196.84 248.6 189.85 231.07"/>
      </g>
      <g class="cls-32">
        <g>
          <polygon class="cls-25" points="419.26 418.95 366.2 418.95 366.2 428.51 422.41 432.76 419.26 418.95"/>
          <polygon class="cls-25" points="398.86 438.6 360.31 432.76 357.63 438.6 398.86 438.6"/>
        </g>
      </g>
      <g class="cls-31">
        <g>
          <polygon class="cls-25" points="0 418.95 53.06 418.95 53.06 428.51 -3.15 432.76 0 418.95"/>
          <polygon class="cls-25" points="20.4 438.6 58.95 432.76 61.63 438.6 20.4 438.6"/>
        </g>
      </g>
      <path class="cls-22" d="M76.24,392.89l-71.16,4.64c-.53,6.95-.98,14.09-1.34,21.44l63.71-3.72s3.5-8.58,8.78-22.37Z"/>
      <polygon class="cls-11" points="70.13 393.29 67.46 415.26 76.24 392.89 70.13 393.29"/>
      <polygon class="cls-29" points="106.24 624.77 98.44 633.33 100.13 639.1 108.34 645.16 123.84 645.16 125.68 630.17 106.24 624.77"/>
      <polyline class="cls-29" points="98.44 633.33 90.22 632.58 86.9 621.74 101.94 612.27 106.24 624.77"/>
      <polyline class="cls-29" points="125.68 630.17 155.44 623.98 150.29 638.7 142.08 646.37 130.23 648.39 123.84 645.16"/>
    </g>
  </g>
</svg>