<?xml version="1.0" encoding="UTF-8"?>
<svg id="_레이어_2" data-name="레이어 2" xmlns="http://www.w3.org/2000/svg" xmlns:xlink="http://www.w3.org/1999/xlink" viewBox="0 0 449.67 630.43">
  <defs>
    <style>
      .cls-1 {
        fill: #333;
      }

      .cls-1, .cls-2, .cls-3, .cls-4, .cls-5, .cls-6, .cls-7 {
        stroke-width: 0px;
      }

      .cls-2 {
        fill: #f89e3a;
      }

      .cls-8 {
        clip-path: url(#clippath);
      }

      .cls-3 {
        fill: none;
      }

      .cls-4 {
        fill: #fce7b5;
      }

      .cls-5 {
        fill: #f89c38;
      }

      .cls-9 {
        clip-path: url(#clippath-1);
      }

      .cls-10 {
        clip-path: url(#clippath-4);
      }

      .cls-11 {
        clip-path: url(#clippath-3);
      }

      .cls-12 {
        clip-path: url(#clippath-2);
      }

      .cls-6 {
        fill: #f5863b;
      }

      .cls-7 {
        fill: #474748;
      }
    </style>
    <clipPath id="clippath">
      <path class="cls-3" d="M290.28,146.63s111.81,7.96,124.11,259.05l3.74,26.01-10.16,12.74-12.3-3.19-9.09,12.21h-20.33s-9.09-8.49-9.09-8.49l-10.16,4.25-11.77-10.62,1.07-20.7,14.44-15.93s3.74-60.52-40.12-112.54l-53.55-128.12,33.22-14.68Z"/>
    </clipPath>
    <clipPath id="clippath-1">
      <path class="cls-3" d="M127.86,146.63S16.05,154.59,3.74,405.68l-3.74,26.01,10.16,12.74,12.3-3.19,9.09,12.21h20.33l9.09-8.49,10.16,4.25,11.77-10.62-1.07-20.7-14.44-15.93s-3.74-60.52,40.12-112.54l53.55-128.12-33.22-14.68Z"/>
    </clipPath>
    <clipPath id="clippath-2">
      <path class="cls-3" d="M106.25,380.29s-.81,121.23-2.08,205.76l-21.42,17.75,3.31,10.84,8.21.75,1.69,5.77,8.2,6.05h15.49l6.38,3.23,11.85-2.02,8.2-7.67,10.02-37.52,37.49-158.57-87.35-44.37Z"/>
    </clipPath>
    <clipPath id="clippath-3">
      <path class="cls-3" d="M314.1,380.29s.81,121.23,2.08,205.76l21.42,17.75-3.31,10.84-8.21.75-1.69,5.77-8.2,6.05h-15.49s-6.38,3.23-6.38,3.23l-11.85-2.02-8.2-7.67-10.02-37.52-37.49-158.57,87.35-44.37Z"/>
    </clipPath>
    <clipPath id="clippath-4">
      <path class="cls-3" d="M433.68,505.47s-15.78-.25-25.2-1.24c-5.69-.91-11.29-2.26-16.68-4.28-3.45-1.59-6.76-3.46-9.85-5.66-1.8-1.54-3.5-3.21-5.05-5-1.61-2.33-3-4.79-4.21-7.34l6.72,2.15-8.29-6.2c-.07-.18-.14-.37-.2-.55l6.32-1.06-8.46-5.18c-.03-.08-.05-.16-.08-.24-1.87-5.53-3.92-10.97-6.36-16.28-2.41-5.26-5.68-9.96-9.46-14.34-1.57-1.82-3.33-3.47-5.2-4.99-2.98-2.41-6.03-4.75-9.28-6.79-8.82-5.54-18.46-10-27.93-14.28-10.93-4.95-22.06-9.5-33.38-13.5-11.35-4.01-34.58-10.35-34.58-10.35l-13.48,1.76-8.04,10.46,1.76,13.48,10.46,8.04s36.02,10.39,53.33,17.57c6.63,2.86,13.19,5.89,19.64,9.13,5.97,3,12.05,6.02,17.53,9.88,1.53,1.3,2.98,2.7,4.3,4.21,1.59,2.35,2.94,4.84,4.13,7.42,2.28,5.86,4.04,11.92,6.3,17.8,1.74,4.51,3.57,9.06,5.96,13.28,2.41,4.26,5.46,8.25,8.79,11.83,3.35,3.61,7.32,6.67,11.32,9.49,2.95,2.08,6.1,3.86,9.37,5.37,8.42,3.89,16.99,6.67,26.17,8.04,11.2,1.67,22.34,2.22,33.65,2.35,4.45.05,15.99-10.76,15.99-10.76l-3.88-19.58-12.11-4.67Z"/>
    </clipPath>
  </defs>
  <g id="Layer_1" data-name="Layer 1">
    <g>
      <polygon class="cls-6" points="119.88 54.19 86.63 60.84 99 66.12 87.62 73.36 110.37 76.67 119.88 54.19"/>
      <polygon class="cls-6" points="299.92 54.19 325.12 58.63 310.46 64.26 318.34 76.67 292.7 73.36 288.47 54.19 299.92 54.19"/>
      <polygon class="cls-2" points="179.28 11.61 155.47 0 159.92 7.58 153.72 8.21 162.4 16.01 179.28 11.61"/>
      <path class="cls-5" d="M314.1,380.29s.81,121.23,2.08,205.76l21.42,17.75-3.31,10.84-8.21.75-1.69,5.77-8.2,6.05h-15.49s-6.38,3.23-6.38,3.23l-11.85-2.02-8.2-7.67-10.02-37.52-37.49-158.57,87.35-44.37Z"/>
      <path class="cls-5" d="M290.28,146.63s111.81,7.96,124.11,259.05l3.74,26.01-10.16,12.74-12.3-3.19-9.09,12.21h-20.33s-9.09-8.49-9.09-8.49l-10.16,4.25-11.77-10.62,1.07-20.7,14.44-15.93s3.74-60.52-40.12-112.54l-53.55-128.12,33.22-14.68Z"/>
      <g class="cls-8">
        <g>
          <path class="cls-7" d="M318.04,140.37c1.6-2.13-14.31,66.91-14.31,66.91l13.37,10.09,23.4-70.74-22.47-6.26Z"/>
          <polygon class="cls-7" points="301.99 300.04 333.45 237.54 341.74 252.4 317.51 317.13 301.99 300.04"/>
          <polygon class="cls-7" points="387.59 226.89 352.28 276.29 358.16 286.37 392.4 256.62 387.59 226.89"/>
          <polygon class="cls-7" points="366.35 318.55 369.02 332.88 334.52 349.34 334.52 336.07 366.35 318.55"/>
          <polygon class="cls-7" points="416.07 358.97 367.79 359.1 371.54 368.65 412.91 378.61 416.07 358.97"/>
        </g>
      </g>
      <path class="cls-6" d="M307.76,283.14l2.43-4.22s50.72,60.88,44.53,122.74l-18.6,16.38,14.44-15.93s3.74-60.52-40.12-112.54l-2.69-6.43Z"/>
      <path class="cls-1" d="M341.85,332.03l-4.35,2.39,4.23,11.47,4.67-2.23s-1.4-6.17-4.55-11.64Z"/>
      <path class="cls-5" d="M127.86,146.63S16.05,154.59,3.74,405.68l-3.74,26.01,10.16,12.74,12.3-3.19,9.09,12.21h20.33l9.09-8.49,10.16,4.25,11.77-10.62-1.07-20.7-14.44-15.93s-3.74-60.52,40.12-112.54l53.55-128.12-33.22-14.68Z"/>
      <g class="cls-9">
        <g>
          <path class="cls-7" d="M100.1,140.37c-1.6-2.13,14.31,66.91,14.31,66.91l-13.37,10.09-23.4-70.74,22.47-6.26Z"/>
          <polygon class="cls-7" points="116.15 300.04 84.69 237.54 76.39 252.4 100.63 317.13 116.15 300.04"/>
          <polygon class="cls-7" points="30.55 226.89 65.86 276.29 59.97 286.37 25.74 256.62 30.55 226.89"/>
          <polygon class="cls-7" points="51.79 318.55 49.12 332.88 83.62 349.34 83.62 336.07 51.79 318.55"/>
          <polygon class="cls-7" points="2.07 358.97 50.34 359.1 46.6 368.65 5.22 378.61 2.07 358.97"/>
        </g>
      </g>
      <path class="cls-6" d="M110.37,283.14l-2.43-4.22s-50.72,60.88-44.53,122.74l18.6,16.38-14.44-15.93s-3.74-60.52,40.12-112.54l2.69-6.43Z"/>
      <path class="cls-5" d="M106.25,380.29s-.81,121.23-2.08,205.76l-21.42,17.75,3.31,10.84,8.21.75,1.69,5.77,8.2,6.05h15.49l6.38,3.23,11.85-2.02,8.2-7.67,10.02-37.52,37.49-158.57-87.35-44.37Z"/>
      <path class="cls-2" d="M312.18,16.2c-.6-1.08-1.02-1.69-1.02-1.69h0c-.18-.16-.5-.27-.91-.33l-30.38-11.03-27.97,23.93,32.42,33.77,9.02,5.29c15.65-4.77,33.26-26.01,33.26-26.01l-14.43-23.92Z"/>
      <path class="cls-2" d="M153.72,35.05L122.8,0l-28.09,17.02s-.26.31-.67.87c-1.22,1.59-13.49,17.5-13.49,17.5,0,0,16.46,28.62,31.66,33.36l9.05-5.23c.11-1.18.18-2.33.24-3.46l32.23-25.01Z"/>
      <path class="cls-2" d="M109.32,69.97S121.68,8.51,187.66,3.47c0,0,101.49-8.94,105.15,66.5l15.59,14.37-5.5,46.28-38.26,23.6-89.35,10.08-86.14-30.93,5.04-41.93,15.13-21.47Z"/>
      <polygon class="cls-6" points="185.98 456.94 144.13 447.33 174.97 503.48 185.98 456.94"/>
      <path class="cls-5" d="M273.07,158.69l-62.89,2.78-62.89-2.78s-52.58,63.2-41.24,223c0,0-5.22,75.54,107.16,77.37,105.73,3.67,101.1-77.37,101.1-77.37,11.34-159.8-41.24-223-41.24-223Z"/>
      <path class="cls-6" d="M115.38,149.73s65.11,71.26,172.25,0c0,0-105.35,33.78-172.25,0Z"/>
      <polyline class="cls-4" points="109.32 69.97 63.38 82.01 86.35 95.98 58.44 111.38 87.09 122.46 73.26 134.02 133.13 158.69 201.06 173.23 276.44 158.69 328.86 134.02 315.03 122.46 343.68 111.38 315.77 95.98 338.74 82.01 292.81 69.97"/>
      <g class="cls-12">
        <g>
          <polygon class="cls-7" points="95.92 417.75 153.19 436.92 147.44 444.32 84.07 432.82 95.92 417.75"/>
          <path class="cls-1" d="M207.95,458.55h-51.95v9.08s39.66,6.66,37.6,6.66,14.34-15.74,14.34-15.74Z"/>
          <polygon class="cls-7" points="95.86 491.83 145.07 502.73 145.07 510.59 95.86 513.62 95.86 491.83"/>
          <polygon class="cls-7" points="134.14 534.2 190.87 534.2 184.71 543.28 134.14 538.74 134.14 534.2"/>
          <polygon class="cls-7" points="95.86 563.25 128.67 569.3 128.67 576.56 89.03 572.93 95.86 563.25"/>
        </g>
      </g>
      <polygon class="cls-6" points="234.38 456.94 276.22 447.33 245.38 503.48 234.38 456.94"/>
      <g class="cls-11">
        <g>
          <polygon class="cls-7" points="324.44 417.75 267.16 436.92 272.91 444.32 336.28 432.82 324.44 417.75"/>
          <path class="cls-1" d="M212.4,458.55h51.95v9.08s-39.66,6.66-37.6,6.66-14.34-15.74-14.34-15.74Z"/>
          <polygon class="cls-7" points="324.49 491.83 275.28 502.73 275.28 510.59 324.49 513.62 324.49 491.83"/>
          <polygon class="cls-7" points="286.22 534.2 229.49 534.2 235.64 543.28 286.22 538.74 286.22 534.2"/>
          <polygon class="cls-7" points="324.49 563.25 291.69 569.3 291.69 576.56 331.33 572.93 324.49 563.25"/>
        </g>
      </g>
      <path class="cls-1" d="M93.81,298.9l2.6,5.7s10.01-13.35,10.09-13.61.95-9.36.95-9.36l-1.15-1.16s-6.42,8.29-12.5,18.42Z"/>
      <path class="cls-1" d="M76.29,332.03l4.35,2.39-4.23,11.47-4.67-2.23s1.4-6.17,4.55-11.64Z"/>
      <path class="cls-5" d="M390.39,261l21.34,37.62-7.33-2.5,1.37,8.48s-14.66-3.38-11.46-4.56-3.93-39.04-3.93-39.04Z"/>
      <path class="cls-5" d="M28.2,261l-21.34,37.62,7.33-2.5-1.37,8.48s14.66-3.38,11.46-4.56,3.93-39.04,3.93-39.04Z"/>
      <polygon class="cls-6" points="314.76 462.29 314.65 450.23 285.31 425.49 234.38 393.58 221.15 394.37 215.06 404.05 220.98 425.63 282.17 447.33 314.76 462.29"/>
      <path class="cls-5" d="M433.68,505.47s-15.78-.25-25.2-1.24c-5.69-.91-11.29-2.26-16.68-4.28-3.45-1.59-6.76-3.46-9.85-5.66-1.8-1.54-3.5-3.21-5.05-5-1.61-2.33-3-4.79-4.21-7.34l6.72,2.15-8.29-6.2c-.07-.18-.14-.37-.2-.55l6.32-1.06-8.46-5.18c-.03-.08-.05-.16-.08-.24-1.87-5.53-3.92-10.97-6.36-16.28-2.41-5.26-5.68-9.96-9.46-14.34-1.57-1.82-3.33-3.47-5.2-4.99-2.98-2.41-6.03-4.75-9.28-6.79-8.82-5.54-18.46-10-27.93-14.28-10.93-4.95-22.06-9.5-33.38-13.5-11.35-4.01-34.58-10.35-34.58-10.35l-13.48,1.76-8.04,10.46,1.76,13.48,10.46,8.04s36.02,10.39,53.33,17.57c6.63,2.86,13.19,5.89,19.64,9.13,5.97,3,12.05,6.02,17.53,9.88,1.53,1.3,2.98,2.7,4.3,4.21,1.59,2.35,2.94,4.84,4.13,7.42,2.28,5.86,4.04,11.92,6.3,17.8,1.74,4.51,3.57,9.06,5.96,13.28,2.41,4.26,5.46,8.25,8.79,11.83,3.35,3.61,7.32,6.67,11.32,9.49,2.95,2.08,6.1,3.86,9.37,5.37,8.42,3.89,16.99,6.67,26.17,8.04,11.2,1.67,22.34,2.22,33.65,2.35,4.45.05,15.99-10.76,15.99-10.76l-3.88-19.58-12.11-4.67Z"/>
      <g class="cls-10">
        <g>
          <polygon class="cls-7" points="433.25 484.33 423.79 549.61 463.15 543.74 467.79 494.83 433.25 484.33"/>
          <path class="cls-7" d="M394.6,479.83l-10.84,30.54,10.52,3.97s14.38-28.84,14.01-31.27-13.69-3.24-13.69-3.24Z"/>
          <polygon class="cls-7" points="331.88 503.36 360.5 493.58 355.67 486.3 328.19 486.3 331.88 503.36"/>
          <polygon class="cls-7" points="355.67 425.17 344.34 455.56 347.32 459.98 366.67 442.86 355.67 425.17"/>
          <polygon class="cls-7" points="289.81 449.47 320.14 436.14 328.19 436.14 309 459.98 289.81 449.47"/>
          <polygon class="cls-7" points="314.79 383.64 301.39 418.74 309 419.89 328.19 399.21 314.79 383.64"/>
          <polygon class="cls-7" points="245.26 440.42 267.45 415.82 274.79 412.52 267.07 442.13 245.26 440.42"/>
          <polygon class="cls-7" points="241.03 370.14 243.22 407.64 250.62 405.58 259.64 378.84 241.03 370.14"/>
        </g>
      </g>
    </g>
  </g>
</svg>