<?xml version="1.0" encoding="utf-8"?>
<!-- Generator: Adobe Illustrator 28.4.1, SVG Export Plug-In . SVG Version: 6.00 Build 0)  -->
<svg version="1.0" id="Layer_1" xmlns="http://www.w3.org/2000/svg" xmlns:xlink="http://www.w3.org/1999/xlink" x="0px" y="0px"
	 viewBox="0 0 1000 1000" style="enable-background:new 0 0 1000 1000;" xml:space="preserve">
<g>
	<polyline style="fill:#ECEAEB;" points="582.4,785.8 610.2,803.3 606.9,814.1 598.7,814.9 597,820.6 588.8,826.7 573.3,826.7 
		566.9,829.9 555.1,827.9 546.8,820.2 536.8,782.7 	"/>
	<polygon style="fill:none;stroke:#C2895D;stroke-width:4;stroke-miterlimit:10;" points="590.9,806.3 598.7,814.9 597,820.6 
		588.8,826.7 573.3,826.7 571.5,811.7 	"/>
	<polyline style="fill:none;stroke:#C2895D;stroke-width:4;stroke-miterlimit:10;" points="598.7,814.9 606.9,814.1 610.2,803.3 
		595.2,793.8 590.9,806.3 	"/>
	<polyline style="fill:none;stroke:#C2895D;stroke-width:4;stroke-miterlimit:10;" points="571.5,811.7 541.7,805.5 546.8,820.2 
		555.1,827.9 566.9,829.9 573.3,826.7 	"/>
	<path style="fill:none;stroke:#C2895D;stroke-width:4;stroke-miterlimit:10;" d="M541.7,805.5"/>
	<polyline style="fill:#ECEAEB;" points="388.3,786.5 360.4,804.1 363.8,814.9 372,815.6 373.7,821.4 381.9,827.5 397.4,827.5 
		403.8,830.7 415.6,828.7 423.8,821 433.9,783.5 	"/>
	<polygon style="fill:#EAECE9;" points="381.9,778.6 374.2,772.9 378.1,752.6 444.3,758.5 444.3,775.2 437,778.6 	"/>
	<polygon style="fill:#EAECE9;" points="588.3,778.5 596.1,772.8 592.2,752.5 526,758.3 526,775.1 533.3,778.5 	"/>
	<g>
		<path style="fill:#D7DCD8;" d="M375.5,767.4c18.3-0.6,48.5-1.5,69-2v-6.9l-66.2-5.9L375.5,767.4z"/>
		<polygon style="fill:#D7DCD8;" points="595.3,767.7 592.4,752.6 526.2,758.5 526.2,766.2 		"/>
	</g>
	<polygon style="fill:#D7DCD8;" points="381.9,778.6 388.3,786.5 432.7,786.5 437,778.6 	"/>
	<polygon style="fill:#D7DCD8;" points="588.5,778.2 582.2,786.2 537.8,786.2 533.5,778.2 	"/>
	<path style="fill:#5795A7;" d="M564.8,341.4c0,0,111.9,8,124.2,259.3l-63.7-3.7c0,0-23.1-56.6-40.2-112.6l-53.6-128.2L564.8,341.4z
		"/>
	<g>
		<defs>
			<path id="SVGID_1_" d="M530.5,353.7c0,0,89.1,128.7,93.8,240.9l-99.1-211.8L530.5,353.7z"/>
		</defs>
		<clipPath id="SVGID_00000170239444322410273150000003898067928506671760_">
			<use xlink:href="#SVGID_1_"  style="overflow:visible;"/>
		</clipPath>
		<path style="clip-path:url(#SVGID_00000170239444322410273150000003898067928506671760_);fill:#488D9D;" d="M563.7,339
			c0,0,111.9,8,124.2,259.3l-63.7-3.7c0,0-23.1-56.6-40.2-112.6l-53.6-128.2L563.7,339z"/>
	</g>
	<path style="fill:#DFDFDD;" d="M616.6,575.2l71.2,4.6c0.5,6.9,1,14.1,1.3,21.4l-63.7-3.7C625.3,597.6,621.8,589,616.6,575.2z"/>
	<polygon style="fill:#D7DCD8;" points="622.7,575.6 625.3,597.6 616.6,575.2 	"/>
	<path style="fill:#5795A7;" d="M401.5,341.4c0,0-111.9,8-124.2,259.3l63.7-3.7c0,0,23.1-56.6,40.2-112.6l53.6-128.2L401.5,341.4z"
		/>
	<g>
		<defs>
			<path id="SVGID_00000065761891515187140490000016255139500660369321_" d="M435.9,353.7c0,0-89.1,128.7-93.8,240.9l99.1-211.8
				L435.9,353.7z"/>
		</defs>
		<clipPath id="SVGID_00000111174774170130442090000005827291251364357028_">
			<use xlink:href="#SVGID_00000065761891515187140490000016255139500660369321_"  style="overflow:visible;"/>
		</clipPath>
		<path style="clip-path:url(#SVGID_00000111174774170130442090000005827291251364357028_);fill:#488D9D;" d="M402.6,339
			c0,0-111.9,8-124.2,259.3l63.7-3.7c0,0,23.1-56.6,40.2-112.6l53.6-128.2L402.6,339z"/>
	</g>
	<path style="fill:#F5863B;" d="M701.1,715.4c0,0-13.4-0.2-21.4-1.1c-4.8-0.8-9.6-1.9-14.2-3.6c-2.9-1.3-5.7-2.9-8.4-4.8
		c-1.5-1.3-3-2.7-4.3-4.3c-1.4-2-2.5-4.1-3.6-6.2l5.7,1.8l-7.1-5.3c-0.1-0.2-0.1-0.3-0.2-0.5l5.4-0.9l-7.2-4.4c0-0.1,0-0.1-0.1-0.2
		c-1.6-4.7-3.3-9.3-5.4-13.8c-2-4.5-4.8-8.5-8-12.2c-1.3-1.5-2.8-3-4.4-4.2c-2.5-2-5.1-4-7.9-5.8c-7.5-4.7-15.7-8.5-23.8-12.1
		c-9.3-4.2-18.8-8.1-28.4-11.5c-9.7-3.4-29.4-8.8-29.4-8.8l-11.5,1.5l-6.8,8.9l1.5,11.5l8.9,6.8c0,0,30.6,8.8,45.3,14.9
		c5.6,2.4,11.2,5,16.7,7.8c5.1,2.5,10.2,5.1,14.9,8.4c1.3,1.1,2.5,2.3,3.7,3.6c1.4,2,2.5,4.1,3.5,6.3c1.9,5,3.4,10.1,5.4,15.1
		c1.5,3.8,3,7.7,5.1,11.3c2,3.6,4.6,7,7.5,10.1c2.8,3.1,6.2,5.7,9.6,8.1c2.5,1.8,5.2,3.3,8,4.6c7.2,3.3,14.4,5.7,22.3,6.8
		c9.5,1.4,19,1.9,28.6,2c3.8,0,13.6-9.1,13.6-9.1l-3.3-16.6L701.1,715.4z"/>
	<g>
		<defs>
			<path id="SVGID_00000051359874013764528250000003803596773888434870_" d="M701.1,715.4c0,0-13.4-0.2-21.4-1.1
				c-4.8-0.8-9.6-1.9-14.2-3.6c-2.9-1.3-5.7-2.9-8.4-4.8c-1.5-1.3-3-2.7-4.3-4.3c-1.4-2-2.5-4.1-3.6-6.2l5.7,1.8l-7.1-5.3
				c-0.1-0.2-0.1-0.3-0.2-0.5l5.4-0.9l-7.2-4.4c0-0.1,0-0.1-0.1-0.2c-1.6-4.7-3.3-9.3-5.4-13.8c-2-4.5-4.8-8.5-8-12.2
				c-1.3-1.5-2.8-3-4.4-4.2c-2.5-2-5.1-4-7.9-5.8c-7.5-4.7-15.7-8.5-23.8-12.1c-9.3-4.2-18.8-8.1-28.4-11.5
				c-9.7-3.4-29.4-8.8-29.4-8.8l-11.5,1.5l-6.8,8.9l1.5,11.5l8.9,6.8c0,0,30.6,8.8,45.3,14.9c5.6,2.4,11.2,5,16.7,7.8
				c5.1,2.5,10.2,5.1,14.9,8.4c1.3,1.1,2.5,2.3,3.7,3.6c1.4,2,2.5,4.1,3.5,6.3c1.9,5,3.4,10.1,5.4,15.1c1.5,3.8,3,7.7,5.1,11.3
				c2,3.6,4.6,7,7.5,10.1c2.8,3.1,6.2,5.7,9.6,8.1c2.5,1.8,5.2,3.3,8,4.6c7.2,3.3,14.4,5.7,22.3,6.8c9.5,1.4,19,1.9,28.6,2
				c3.8,0,13.6-9.1,13.6-9.1l-3.3-16.6L701.1,715.4z"/>
		</defs>
		<clipPath id="SVGID_00000057870879367067139370000000078402024684721794_">
			<use xlink:href="#SVGID_00000051359874013764528250000003803596773888434870_"  style="overflow:visible;"/>
		</clipPath>
		<g style="clip-path:url(#SVGID_00000057870879367067139370000000078402024684721794_);">
			<polygon style="fill:#474748;" points="700.8,697.5 692.7,753 726.2,748 730.1,706.4 			"/>
			<path style="fill:#474748;" d="M667.9,693.6l-9.2,26l8.9,3.4c0,0,12.2-24.5,11.9-26.6C679.2,694.3,667.9,693.6,667.9,693.6z"/>
			<polygon style="fill:#474748;" points="614.6,713.6 638.9,705.3 634.8,699.1 611.4,699.1 			"/>
			<polygon style="fill:#474748;" points="634.8,647.2 625.2,673 627.7,676.8 644.2,662.2 			"/>
			<polygon style="fill:#474748;" points="578.8,667.8 604.6,656.5 611.4,656.5 595.1,676.8 			"/>
			<polygon style="fill:#474748;" points="600,611.8 588.7,641.7 595.1,642.7 611.4,625.1 			"/>
			<polygon style="fill:#474748;" points="540.9,660.1 559.8,639.2 566,636.4 559.5,661.6 			"/>
			<polygon style="fill:#474748;" points="537.3,600.4 539.2,632.3 545.5,630.5 553.1,607.8 			"/>
		</g>
	</g>
	<polygon style="fill:#F5863B;" points="393.5,248.9 360.2,255.5 372.6,260.8 361.2,268 384,271.3 	"/>
	<polygon style="fill:#F5863B;" points="573.7,248.9 598.9,253.3 584.3,258.9 592.1,271.3 566.5,268 562.2,248.9 	"/>
	<polygon style="fill:#F89E3A;" points="453,206.2 429.1,194.6 433.6,202.2 427.4,202.8 436.1,210.6 	"/>
	<path style="fill:#F89E3A;" d="M525.7,221.7l28-23.9l31.3,11.4c0,0,21.9,31.5-26.9,46.4L525.7,221.7z"/>
	<path style="fill:#474748;" d="M558.1,255.5c-3.6-42.4,24.3-48.6,26.9-46.4l15.5,25.6c0,0-17.6,21.2-33.3,26L558.1,255.5z"/>
	<path style="fill:#F89E3A;" d="M427.4,229.7l-31-35.1l-28.1,17c0,0-26.3,31.3,22.4,46.5L427.4,229.7z"/>
	<path style="fill:#474748;" d="M394.9,258.2c3.9-42.4-24-48.7-26.6-46.5L354.2,230c0,0,16.5,28.6,31.7,33.4L394.9,258.2z"/>
	<path style="fill:#F89E3A;" d="M383,264.6c0,0,12.4-61.5,78.4-66.6c0,0,101.6-8.9,105.2,66.6l15.6,14.4l-5.5,46.3L538.4,349
		L449,359.1l-86.2-31l5-42L383,264.6z"/>
	<polygon style="fill:#474748;" points="375,308.4 412.1,304 412.1,312.3 376.3,320.5 	"/>
	<polygon style="fill:#474748;" points="395.3,335.9 417.3,318.9 421.5,322.6 408.4,339.3 	"/>
	<polygon style="fill:#474748;" points="372.6,276 405.4,284.9 402.2,291.5 372.6,284.9 	"/>
	<polygon style="fill:#474748;" points="576.3,307.4 539.2,303.1 539.2,311.3 575,319.6 	"/>
	<polygon style="fill:#474748;" points="555.9,335 533.9,318 529.8,321.7 542.9,338.4 	"/>
	<polygon style="fill:#474748;" points="578.6,275.1 545.8,284 549.1,290.5 578.6,284 	"/>
	<path style="fill:#FFF8EA;" d="M494.4,292.1l41.5-24C535.9,268,535.9,302.1,494.4,292.1z"/>
	<path style="fill:#FFF8EA;" d="M452.1,294.4L414.3,274C414.3,274,407.4,302.8,452.1,294.4z"/>
	<path style="fill:#474748;" d="M515.2,291.5c5.8,0,10.5-4.7,10.5-10.5c0-2.2-0.7-4.2-1.8-5.9l-18.1,10.5
		C507.4,289,511,291.5,515.2,291.5z"/>
	<path style="fill:#474748;" d="M444.1,290l-16.8-9.1c-0.7,1.3-1.1,2.9-1.1,4.5c0,5.3,4.3,9.5,9.5,9.5
		C439.3,295,442.5,293,444.1,290z"/>
	<polygon style="fill:#F5863B;" points="493.9,273.9 508.1,253.3 518.4,259.3 498,276 	"/>
	<polygon style="fill:#F5863B;" points="444.6,275.8 448.7,271 435.9,254.5 424.2,262.5 	"/>
	<polygon style="fill:#474748;" points="463.4,203.1 472,272.9 479.3,272.9 486.9,202.6 	"/>
	<polygon style="fill:#474748;" points="453,217.6 497.9,217.6 494.1,225.8 456.2,224.5 	"/>
	<polygon style="fill:#474748;" points="460.2,241.6 490.7,241.6 488.4,248.9 462,248.9 	"/>
	<path style="fill:#474748;" d="M461.4,198.1c-6.6,0.5-12.6,1.6-18.2,3.1l4.4,6.3l27.8-2.8l28.6,2.8l4.2-5.6
		C483.9,196.1,461.4,198.1,461.4,198.1z"/>
	<polygon style="fill:#FCE7B5;" points="456.5,316.7 431.7,326 440.2,328 436.4,332.9 448.1,332 	"/>
	<polygon style="fill:#FCE7B5;" points="494.2,351 514.5,333.9 512,342.3 518.2,341.5 511.7,351.1 	"/>
	<path style="fill:#EAEAEA;" d="M383,264.6c0,0,5.4-28,39.6-46c32-16.8,70.7-14.6,101.2,4.8c18.7,11.9,38.8,27.4,42.9,41.2
		c0,0,9.7-1.2-16.7-44c-4.4-7.2-8.6-22,3.8-30.4c0,0-79.8-22.9-132,8.7C421.7,199,380,214.9,383,264.6z"/>
	<path style="fill:#DFE1DD;" d="M549.9,220.7c-1.5-3-3.1-7.1-3.8-11.4l-21-7.2l25.3,19.7C550.3,221.4,550.1,221,549.9,220.7z"/>
	<g>
		<path style="fill:#5D9FAE;" d="M391.9,345.1c0,0,19.8,31-15.5,135.2c0,0,82.4-0.9,209.1-8.7c0,0-10.9-52.8-22.7-126.5l-82.5,40.7
			L391.9,345.1z"/>
		<path style="fill:#75ADBD;" d="M549,426.4l14.4,55.8c20.6-0.9,4.6-8.8,24.2-10.9c0,0-3.3-50.9-24.8-126.2l-82.5,40.7l-88.4-40.7
			c0,0-14,93.9-15.5,135.2c0,0,9.8,0.8,26.3,1.8l8.1-37.5l2.7,38.2c40.6,2.3,69,2.5,137.9-0.1L549,426.4z"/>
	</g>
	<g>
		<polygon style="fill:#794632;" points="422,404.2 466.6,409.7 567.4,343.3 507.8,350.2 		"/>
		<polygon style="fill:#794632;" points="499.3,375.6 454.7,381.1 382.5,343.3 427.4,348.4 		"/>
		<polygon style="fill:#DEDDDA;" points="500.3,372.9 458.6,378.5 389.2,342.5 424.2,345.8 		"/>
		<polygon style="fill:#ECEAEB;" points="423.4,400.6 465.2,406.1 560.2,342.5 496.8,353.2 		"/>
	</g>
	<g>
		<path style="fill:#5F954A;" d="M381.7,491.9l-83.5,259.2c116.3,19.7,239,21.1,356.5,4l-73.1-266.6L381.7,491.9z"/>
		<polygon style="fill:#D7DCD8;" points="381.7,487.5 381.7,491.9 581.6,488.5 581.6,482.5 407.2,480.7 		"/>
		<path style="fill:#E5E5E4;" d="M397.4,491.9l-45.1,230l0,0c78.1,10,158.7,10.7,237.2,2l22.8-2.5l-51.6-232.6L397.4,491.9z"/>
		<polygon style="fill:#5F954A;" points="376.6,460.8 368,477.8 381.7,487.5 520.4,484.8 533.1,487.5 581.6,482.5 595.9,474.1 
			586.6,460.8 		"/>
		<polyline style="fill:#517840;" points="520.4,484.8 529.1,476.9 509,485 		"/>
		<polygon style="fill:#D7DCD8;" points="412.5,491.9 397.6,663 427.2,491.4 		"/>
		<polygon style="fill:#D7DCD8;" points="500.7,490 513.5,577.4 513.5,490 		"/>
		<polygon style="fill:#D7DCD8;" points="548.1,489.1 557.6,688.2 536.3,489.3 		"/>
		<polygon style="fill:#517840;" points="419.5,486.8 404.9,476.9 410.7,486.8 		"/>
		<polygon style="fill:#DFAA25;" points="591.5,627.6 553.9,633 563.7,676.6 601.6,673.2 		"/>
		<polygon style="fill:#C6C5C5;" points="568.3,634.7 565.5,627.7 562.8,628.1 		"/>
		<polygon style="fill:#C6C5C5;" points="577.3,633.4 576.5,627.6 573.5,627.8 		"/>
		<polygon style="fill:#C6C5C5;" points="583.5,625.4 585.6,625.4 587.6,631.2 		"/>
		<polygon style="fill:#C6C5C5;" points="557.6,629.6 554.8,629.6 557.6,634.7 		"/>
		<polygon style="fill:#C6C5C5;" points="573.5,674.6 573.5,680 575.4,680 		"/>
		<polygon style="fill:#C6C5C5;" points="585.6,672.4 585.6,676.6 587.6,676.6 		"/>
		<polygon style="fill:#C6C5C5;" points="594.5,672.4 594.5,677.3 597.3,677.3 		"/>
		<polyline style="fill:#C6C5C5;" points="550.1,636.8 559.3,637.1 550.1,638.7 550.1,637.7 		"/>
		<polygon style="fill:#C6C5C5;" points="554.7,642.7 555.6,645 562.8,643.9 		"/>
		<polygon style="fill:#C6C5C5;" points="553.6,650.4 553.7,652.1 563.9,650.4 		"/>
		<polygon style="fill:#C6C5C5;" points="557.6,663.3 557.8,665.1 568,663.3 		"/>
		<polygon style="fill:#C6C5C5;" points="557.6,671.5 557.8,673.3 568,671.5 		"/>
		<polygon style="fill:#C6C5C5;" points="556.2,656.8 557.6,658.6 563.9,658.6 		"/>
		<polygon style="fill:#8C3E22;" points="437.5,506.5 404.9,511 397.6,538.9 435.9,540.7 		"/>
		<path style="fill:#CB6F28;" d="M470.1,729.9l-3.6-29.8l-61.6-1.3l-7.2,27.8C421.7,728.5,445.9,729.6,470.1,729.9z"/>
		<polygon style="fill:#782F18;" points="407.3,539.4 417.8,539.9 423.2,508.5 409.8,510.3 		"/>
		<polygon style="fill:#C6C5C5;" points="423.4,703.9 424,696.7 421.2,696.6 		"/>
		<polygon style="fill:#C6C5C5;" points="432.6,704.2 434.6,698.5 431.6,698.1 		"/>
		<polygon style="fill:#C6C5C5;" points="442.3,697.6 444.3,698 443.6,703.8 		"/>
		<polygon style="fill:#C6C5C5;" points="451.9,703.5 453.9,697.8 450.9,697.5 		"/>
		<polygon style="fill:#C6C5C5;" points="461.6,696.9 463.6,697.3 462.9,703.2 		"/>
		<polygon style="fill:#C6C5C5;" points="415.5,697.1 412.8,696.7 413.1,702 		"/>
		<polygon style="fill:#C6C5C5;" points="460.8,714.6 472.5,713.4 472,711.8 		"/>
		<polygon style="fill:#C6C5C5;" points="462.2,720.1 471.7,720.1 471.7,718.3 		"/>
		<polygon style="fill:#C6C5C5;" points="470,708.5 470.2,706.8 461.7,708.1 		"/>
		<polygon style="fill:#C6C5C5;" points="408.3,527.1 396.6,526.3 396.3,528 		"/>
		<polygon style="fill:#C6C5C5;" points="409.5,521.5 400.3,520 399.5,521.7 		"/>
		<polygon style="fill:#C6C5C5;" points="399.2,515.2 399.9,514 409.5,514.8 		"/>
		<polygon style="fill:#C6C5C5;" points="396.9,531.5 395.9,533.1 404.7,533.2 		"/>
		<polygon style="fill:#C6C5C5;" points="423.4,536.5 421.8,543.7 424.5,543.9 		"/>
		<polygon style="fill:#C6C5C5;" points="414.3,535.7 411.5,541.3 414.4,541.8 		"/>
		<polygon style="fill:#C6C5C5;" points="403.7,541.8 401.7,541.3 403.3,535.5 		"/>
		<polygon style="fill:#C6C5C5;" points="430.3,543.7 432.9,544.3 433.4,539 		"/>
		<polygon style="fill:#C6C5C5;" points="422.2,512.8 418.9,505.9 416.2,506.4 		"/>
		<polygon style="fill:#C6C5C5;" points="431.1,511.3 429.9,505.6 426.9,505.8 		"/>
		<polygon style="fill:#C6C5C5;" points="411.1,508.1 408.3,508.2 411.5,513.1 		"/>
		<polygon style="fill:#C6C5C5;" points="407.8,717.6 396.2,716.1 395.7,717.7 		"/>
		<polygon style="fill:#C6C5C5;" points="395.6,721.3 394.4,722.8 403.1,723.5 		"/>
		<polyline style="fill:#C6C5C5;" points="398.8,703.7 407.4,705.6 398,705.5 398.4,704.6 		"/>
		<polygon style="fill:#C6C5C5;" points="400.5,709.2 400.2,711.6 407.7,711.7 		"/>
	</g>
	<path style="fill:#FCE7B5;" d="M617.5,306.1l-27.9-15.4l23-14l-46-12l13.5,28.3l-18.7,37.8l-52.6,19.5c24.8-47.5-86.9-52.7-68.1,0
		l-47.2-16.4l-20.9-40l10.3-29.3l-46,12l23,14L332,306.1l28.7,11.1l-13.8,11.6l59.9,24.7l68,14.5l75.4-14.5l52.5-24.7l-13.8-11.6
		L617.5,306.1z"/>
	<path style="fill:#F5863B;" d="M468.3,285.2c-1.6,1-2.6,2.7-3.4,4.4c-5.2,10.6-6.5,22.7-5.8,34.5c0.1,0.8,0.2,1.7,0.8,2.3
		c0.5,0.4,1.2,0.5,1.9,0.5c9.6,0.5,19.2,0.7,28.8,0.7c0.2-8.1,0.1-16.1-0.6-24.2c-0.5-5.4-1-16.1-6.2-19.5
		C481.8,282.5,471.1,283.4,468.3,285.2z"/>
	<path style="fill:#474748;" d="M490.8,323.8L490.8,323.8l-31.7-1.6c0,0.6,0.1,1.2,0.1,1.9c0.1,0.8,0.2,1.7,0.8,2.3
		c0.5,0.4,1.2,0.5,1.9,0.5c9.6,0.5,19.2,0.7,28.8,0.7C490.7,326.2,490.7,325,490.8,323.8z"/>
	<polyline style="fill:#F89C38;" points="689.1,600.6 692.8,626.7 682.6,639.4 670.3,636.2 661.2,648.4 640.9,648.4 631.8,639.9 
		621.6,644.2 609.8,633.6 610.9,612.8 625.3,596.9 	"/>
	<polyline style="fill:#F89C38;" points="277.3,600.6 273.5,626.7 283.7,639.4 296,636.2 305.1,648.4 325.5,648.4 334.6,639.9 
		344.8,644.2 356.5,633.6 355.5,612.8 341,596.9 	"/>
	<polygon style="fill:#474748;" points="471.4,325.8 471.4,333.8 451.5,331.8 452.9,335.3 493.9,341.4 499.4,337.7 476.8,333.6 
		476.5,325.8 	"/>
	<g>
		<polygon style="fill:#DFE1DD;" points="487,408.2 501.4,419.4 528.5,419.4 533.3,408.2 521.5,403.7 		"/>
		<polygon style="fill:#ECEAEB;" points="487,408.2 487,429.1 501,438 528.9,438 535.9,425.7 533.3,408.2 528.5,419.4 501.4,419.4 
					"/>
		<polygon style="fill:#ECEAEB;" points="487,408.2 463.4,413.4 470.4,430.9 487,429.1 		"/>
		<polygon style="fill:#DFE1DD;" points="463.4,413.4 453.8,430.9 447.7,677.9 485.2,676.4 470.4,430.9 		"/>
		<polygon style="fill:#ECEAEB;" points="463.4,413.4 453.3,415.6 442,435.8 435,647.7 463.4,647.7 467.7,438.3 470.4,430.9 		"/>
	</g>
	<g>
		<defs>
			<path id="SVGID_00000122690912426441493880000009268142189083861643_" d="M564.8,341.4c0,0,111.9,8,124.2,259.3l3.7,26
				l-10.2,12.8l-12.3-3.2l-9.1,12.2h-20.3l-9.1-8.5l-10.2,4.3l-11.8-10.6l1.1-20.7l14.5-15.9c0,0,3.7-60.6-40.2-112.6l-53.6-128.2
				L564.8,341.4z"/>
		</defs>
		<clipPath id="SVGID_00000150079069858079351200000012170878757266519940_">
			<use xlink:href="#SVGID_00000122690912426441493880000009268142189083861643_"  style="overflow:visible;"/>
		</clipPath>
		<g style="clip-path:url(#SVGID_00000150079069858079351200000012170878757266519940_);">
			<polygon style="fill:#474748;" points="692.8,601.3 639.7,601.3 639.7,610.8 696,615.1 			"/>
			<polygon style="fill:#474748;" points="672.4,620.9 633.9,615.1 631.2,620.9 			"/>
		</g>
	</g>
	<g>
		<defs>
			<path id="SVGID_00000101795059595165256290000012600497567452533683_" d="M401.5,341.4c0,0-111.9,8-124.2,259.3l-3.7,26
				l10.2,12.8l12.3-3.2l9.1,12.2h20.3l9.1-8.5l10.2,4.3l11.8-10.6l-1.1-20.7L341,596.9c0,0-3.7-60.6,40.2-112.6l53.6-128.2
				L401.5,341.4z"/>
		</defs>
		<clipPath id="SVGID_00000092445139325542052820000012345570221647880631_">
			<use xlink:href="#SVGID_00000101795059595165256290000012600497567452533683_"  style="overflow:visible;"/>
		</clipPath>
		<g style="clip-path:url(#SVGID_00000092445139325542052820000012345570221647880631_);">
			<polygon style="fill:#474748;" points="273.5,601.3 326.6,601.3 326.6,610.8 270.4,615.1 			"/>
			<polygon style="fill:#474748;" points="293.9,620.9 332.5,615.1 335.2,620.9 			"/>
		</g>
	</g>
	<path style="fill:#DFDFDD;" d="M349.8,575.2l-71.2,4.6c-0.5,6.9-1,14.1-1.3,21.4l63.7-3.7C341,597.6,344.5,589,349.8,575.2z"/>
	<polygon style="fill:#D7DCD8;" points="343.7,575.6 341,597.6 349.8,575.2 	"/>
	<polygon style="fill:none;stroke:#C2895D;stroke-width:4;stroke-miterlimit:10;" points="379.8,807.1 372,815.6 373.7,821.4 
		381.9,827.5 397.4,827.5 399.2,812.5 	"/>
	<polyline style="fill:none;stroke:#C2895D;stroke-width:4;stroke-miterlimit:10;" points="372,815.6 363.8,814.9 360.4,804.1 
		375.5,794.6 379.8,807.1 	"/>
	<polyline style="fill:none;stroke:#C2895D;stroke-width:4;stroke-miterlimit:10;" points="399.2,812.5 429,806.3 423.8,821 
		415.6,828.7 403.8,830.7 397.4,827.5 	"/>
	<path style="fill:none;stroke:#C2895D;stroke-width:4;stroke-miterlimit:10;" d="M429,806.3"/>
</g>
</svg>
